<?xml version="1.0" encoding="utf-8"?>
<!-- Generator: Adobe Illustrator 21.1.0, SVG Export Plug-In . SVG Version: 6.00 Build 0)  -->
<svg version="1.1" xmlns="http://www.w3.org/2000/svg" xmlns:xlink="http://www.w3.org/1999/xlink" x="0px" y="0px"
	 viewBox="0 0 2401.4 1020" style="enable-background:new 0 0 2401.4 1020;" xml:space="preserve">
<style type="text/css">
	.st0{fill:none;stroke:#000000;stroke-width:0.25;stroke-miterlimit:10;}
	.st1{fill:#2C2F33;}
	.st2{fill:#1E88E5;}
	.st3{clip-path:url(#SVGID_2_);fill:#2C2F33;}
	.st4{clip-path:url(#SVGID_2_);fill:#1E88E5;}
	.st5{clip-path:url(#SVGID_4_);fill:#2C2F33;}
	.st6{clip-path:url(#SVGID_6_);fill:#2C2F33;}
	.st7{fill:#363636;}
	.st8{fill:#FFFFFF;stroke:#000000;stroke-width:0.25;stroke-miterlimit:10;}
	.st9{fill:#1E88E5;stroke:#1E88E5;stroke-miterlimit:10;}
	.st10{fill:none;stroke:#363636;stroke-width:5;stroke-linecap:round;stroke-linejoin:round;stroke-miterlimit:10;}
	.st11{fill:#A7A9AC;}
	.st12{fill:#FFFFFF;}
	.st13{fill:none;stroke:#1E88E5;stroke-width:3;stroke-miterlimit:10;}
</style>
<g id="сетка">
	<g>
		<rect x="2201.4" y="600.4" class="st0" width="200" height="200"/>
		<rect x="2001.3" y="600.4" class="st0" width="200" height="200"/>
		<rect x="1801.1" y="600.4" class="st0" width="200" height="200"/>
		<rect x="1601" y="600.4" class="st0" width="200" height="200"/>
	</g>
	<g>
		<rect x="1400.9" y="600.4" class="st0" width="200" height="200"/>
		<rect x="1200.8" y="600.4" class="st0" width="200" height="200"/>
		<rect x="1000.6" y="600.4" class="st0" width="200" height="200"/>
		<rect x="800.5" y="600.4" class="st0" width="200" height="200"/>
	</g>
	<g>
		<rect x="600.4" y="600.4" class="st0" width="200" height="200"/>
		<rect x="400.3" y="600.4" class="st0" width="200" height="200"/>
		<rect x="200.1" y="600.4" class="st0" width="200" height="200"/>
		<rect y="600.4" class="st0" width="200" height="200"/>
	</g>
	<g>
		<rect x="2201.4" y="400.3" class="st0" width="200" height="200"/>
		<rect x="2001.3" y="400.3" class="st0" width="200" height="200"/>
		<rect x="1801.1" y="400.3" class="st0" width="200" height="200"/>
		<rect x="1601" y="400.3" class="st0" width="200" height="200"/>
	</g>
	<g>
		<rect x="1400.9" y="400.3" class="st0" width="200" height="200"/>
		<rect x="1200.8" y="400.3" class="st0" width="200" height="200"/>
		<rect x="1000.6" y="400.3" class="st0" width="200" height="200"/>
		<rect x="800.5" y="400.3" class="st0" width="200" height="200"/>
	</g>
	<g>
		<rect x="600.4" y="400.3" class="st0" width="200" height="200"/>
		<rect x="400.3" y="400.3" class="st0" width="200" height="200"/>
		<rect x="200.1" y="400.3" class="st0" width="200" height="200"/>
		<rect y="400.3" class="st0" width="200" height="200"/>
	</g>
	<g>
		<rect x="2201.4" y="200.1" class="st0" width="200" height="200"/>
		<rect x="2001.3" y="200.1" class="st0" width="200" height="200"/>
		<rect x="1801.1" y="200.1" class="st0" width="200" height="200"/>
		<rect x="1601" y="200.1" class="st0" width="200" height="200"/>
	</g>
	<g>
		<rect x="1400.9" y="200.1" class="st0" width="200" height="200"/>
		<rect x="1200.8" y="200.1" class="st0" width="200" height="200"/>
		<rect x="1000.6" y="200.1" class="st0" width="200" height="200"/>
		<rect x="800.5" y="200.1" class="st0" width="200" height="200"/>
	</g>
	<g>
		<rect x="600.4" y="200.1" class="st0" width="200" height="200"/>
		<rect x="400.3" y="200.1" class="st0" width="200" height="200"/>
		<rect x="200.1" y="200.1" class="st0" width="200" height="200"/>
		<rect y="200.1" class="st0" width="200" height="200"/>
	</g>
	<g>
		<rect x="2201.4" class="st0" width="200" height="200"/>
		<rect x="2001.3" class="st0" width="200" height="200"/>
		<rect x="1801.1" class="st0" width="200" height="200"/>
		<rect x="1601" class="st0" width="200" height="200"/>
	</g>
	<g>
		<rect x="1400.9" class="st0" width="200" height="200"/>
		<rect x="1200.8" class="st0" width="200" height="200"/>
		<rect x="1000.6" class="st0" width="200" height="200"/>
		<rect x="800.5" class="st0" width="200" height="200"/>
	</g>
	<g>
		<rect x="600.4" class="st0" width="200" height="200"/>
		<rect x="400.3" class="st0" width="200" height="200"/>
		<rect x="200.1" class="st0" width="200" height="200"/>
		<rect class="st0" width="200" height="200"/>
	</g>
</g>
<g id="Слой_1">
	<g>
		<g>
			<path class="st1" d="M169.3,521.1c0-1.3-1-2.3-2.3-2.3H32c-1.3,0-2.3,1-2.3,2.3V545c0,1.3,1,2.3,2.3,2.3h135c1.3,0,2.3-1,2.3-2.3
				V521.1z M164.6,542.7H34.3v-19.3h130.3V542.7z M164.6,542.7"/>
		</g>
	</g>
	<g>
		<g>
			<path class="st1" d="M368.3,543.3h-9.5c-1.3,0-2.3,1-2.3,2.3c0,1.3,1,2.3,2.3,2.3h9.5c1.3,0,2.3-1,2.3-2.3
				C370.6,544.3,369.6,543.3,368.3,543.3L368.3,543.3z M368.3,543.3"/>
			<path class="st1" d="M324.3,543.3h-55.5c-1.3,0-2.3,1-2.3,2.3c0,1.3,1,2.3,2.3,2.3h55.5c1.3,0,2.3-1,2.3-2.3
				C326.6,544.3,325.5,543.3,324.3,543.3L324.3,543.3z M324.3,543.3"/>
			<path class="st1" d="M268.7,559.8h37.2c1.3,0,2.3-1,2.3-2.3c0-1.3-1-2.3-2.3-2.3h-37.2c-1.3,0-2.3,1-2.3,2.3
				C266.4,558.8,267.4,559.8,268.7,559.8L268.7,559.8z M268.7,559.8"/>
			<path class="st2" d="M259.7,545.6c0-1.3-1-2.3-2.3-2.3h-23.9c-1.3,0-2.3,1-2.3,2.3v23.9c0,1.3,1,2.3,2.3,2.3h23.9
				c1.3,0,2.3-1,2.3-2.3V545.6z M255,567.2h-19.3v-19.3H255V567.2z M255,567.2"/>
		</g>
		<g>
			<path class="st1" d="M368.3,493.2h-9.5c-1.3,0-2.3,1-2.3,2.3c0,1.3,1,2.3,2.3,2.3h9.5c1.3,0,2.3-1,2.3-2.3
				C370.6,494.3,369.6,493.2,368.3,493.2L368.3,493.2z M368.3,493.2"/>
			<path class="st1" d="M324.3,493.2h-55.5c-1.3,0-2.3,1-2.3,2.3c0,1.3,1,2.3,2.3,2.3h55.5c1.3,0,2.3-1,2.3-2.3
				C326.6,494.3,325.5,493.2,324.3,493.2L324.3,493.2z M324.3,493.2"/>
			<path class="st1" d="M268.7,509.8h37.2c1.3,0,2.3-1,2.3-2.3c0-1.3-1-2.3-2.3-2.3h-37.2c-1.3,0-2.3,1-2.3,2.3
				C266.4,508.8,267.4,509.8,268.7,509.8L268.7,509.8z M268.7,509.8"/>
			<path class="st2" d="M259.7,495.6c0-1.3-1-2.3-2.3-2.3h-23.9c-1.3,0-2.3,1-2.3,2.3v23.9c0,1.3,1,2.3,2.3,2.3h23.9
				c1.3,0,2.3-1,2.3-2.3V495.6z M255,517.1h-19.3v-19.3H255V517.1z M255,517.1"/>
		</g>
		<g>
			<path class="st1" d="M368.3,443.2h-9.5c-1.3,0-2.3,1-2.3,2.3c0,1.3,1,2.3,2.3,2.3h9.5c1.3,0,2.3-1,2.3-2.3
				C370.6,444.2,369.6,443.2,368.3,443.2L368.3,443.2z M368.3,443.2"/>
			<path class="st1" d="M324.3,443.2h-55.5c-1.3,0-2.3,1-2.3,2.3c0,1.3,1,2.3,2.3,2.3h55.5c1.3,0,2.3-1,2.3-2.3
				C326.6,444.2,325.5,443.2,324.3,443.2L324.3,443.2z M324.3,443.2"/>
			<path class="st1" d="M268.7,459.8h37.2c1.3,0,2.3-1,2.3-2.3c0-1.3-1-2.3-2.3-2.3h-37.2c-1.3,0-2.3,1-2.3,2.3
				C266.4,458.7,267.4,459.8,268.7,459.8L268.7,459.8z M268.7,459.8"/>
			<path class="st2" d="M259.7,445.5c0-1.3-1-2.3-2.3-2.3h-23.9c-1.3,0-2.3,1-2.3,2.3v23.9c0,1.3,1,2.3,2.3,2.3h23.9
				c1.3,0,2.3-1,2.3-2.3V445.5z M255,467.1h-19.3v-19.3H255V467.1z M255,467.1"/>
		</g>
	</g>
	<g>
		<g>
			<defs>
				<rect id="SVGID_1_" x="826.8" y="31.8" width="147.4" height="144.1"/>
			</defs>
			<clipPath id="SVGID_2_">
				<use xlink:href="#SVGID_1_"  style="overflow:visible;"/>
			</clipPath>
			<path class="st3" d="M846.3,146.3h10v26.3c0,1.2,0.7,2.2,1.8,2.7c0.4,0.1,0.8,0.2,1.2,0.2c0.7,0,1.5-0.3,2.1-0.8l29.7-28.4h55.6
				c7.9,0,15.2-5,18.1-12.4c0.6-1.5-0.1-3.2-1.7-3.8c-1.5-0.6-3.2,0.1-3.8,1.7c-2,5.2-7.1,8.6-12.6,8.6h-56.8c-0.8,0-1.5,0.3-2,0.8
				l-25.5,24.4v-22.3c0-1.6-1.3-3-3-3h-13c-7.5,0-13.5-6.1-13.5-13.5V65.7c0-7.5,6.1-13.5,13.5-13.5h61.5c1.6,0,3-1.3,3-3
				c0-1.6-1.3-3-3-3h-61.5c-10.8,0-19.5,8.7-19.5,19.5v61.2C826.8,137.6,835.5,146.3,846.3,146.3L846.3,146.3z M846.3,146.3"/>
			<path class="st4" d="M903.4,68.9c-1.1-1.4-2.8-2.3-4.7-2.3h-14.1c-3.2,0-5.8,2.6-5.8,5.8v43.2c0,3.2,2.6,5.8,5.8,5.8h14.1
				c1.5,0,2.9-0.6,4-1.6c2.5,2.5,5.9,4,9.7,4h40.1c9.2,0,15.1-4.9,16.1-13.3l5.4-34.2c0-0.1,0-0.3,0-0.4c0-7.5-6.1-13.7-13.7-13.7
				h-19.6v-14c0-6.4-1.9-11-5.6-13.7c-5.9-4.3-13.9-1.9-14.3-1.8c-1.2,0.4-2.1,1.5-2.1,2.8v16.4c0,12.4-14.5,16.7-15.1,16.9
				C903.5,68.8,903.5,68.8,903.4,68.9L903.4,68.9z M898.6,115.5h-14v-43h14V115.5z M904.6,74.6c0.2,0,0.4,0,0.6-0.1
				c0.8-0.2,19.5-5.6,19.5-22.6V38c1.9-0.2,4.8-0.2,6.9,1.3c2.1,1.6,3.2,4.6,3.2,8.9v16.9c0,1.6,1.3,3,3,3h22.6
				c4.2,0,7.6,3.4,7.8,7.5l-5.4,34v0.1c-0.7,5.4-4.1,8.1-10.3,8.1h-40c-4.3,0-7.8-3.5-7.8-7.8L904.6,74.6L904.6,74.6z M904.6,74.6"
				/>
		</g>
	</g>
	<g>
		<path class="st2" d="M1084.7,143.2c1.8,0,3.2-1.5,3.2-3.2V90c0-1.8-1.5-3.2-3.2-3.2c-0.9,0-1.7,0.3-2.3,1l-12.5,12.5
			c-1.2,1.3-1.2,3.3,0,4.6c0.6,0.6,1.4,0.9,2.3,0.9c0,0,0,0,0,0c0.9,0,1.7-0.3,2.3-0.9l7-7v42.2
			C1081.4,141.7,1082.9,143.2,1084.7,143.2z"/>
		<path class="st2" d="M1115.9,136.7h-12.5c-1.8,0-3.2,1.5-3.2,3.2c0,1.8,1.5,3.2,3.2,3.2h12.5c4.2,0,8.1-1.6,11.1-4.6
			c3-3,4.6-7,4.6-11.1c0-4.1-1.5-7.9-4.4-10.9l-0.2-0.3c-3-3-6.9-4.6-11.1-4.6h-9.3V93.2h21.7c1.8,0,3.2-1.5,3.2-3.2
			c0-1.8-1.5-3.2-3.2-3.2h-25c-1.8,0-3.2,1.5-3.2,3.2v25c0,1.8,1.5,3.2,3.2,3.2h12.5c2.3,0,4.6,0.9,6.3,2.5l0.2,0.3
			c1.7,1.7,2.7,4.1,2.7,6.5c0,2.5-1,4.8-2.7,6.6C1120.7,135.8,1118.4,136.7,1115.9,136.7z"/>
		<path class="st1" d="M1168.4,75.6c-1.7,0-3,1.3-3,3v75c0,2.2-0.9,4.3-2.4,5.8c-1.6,1.6-3.7,2.4-5.9,2.4h-113
			c-2.2,0-4.3-0.9-5.9-2.4c-1.6-1.5-2.4-3.6-2.4-5.8v-75c0-1.7-1.4-3-3-3s-3,1.4-3,3v75c0,3.7,1.5,7.4,4.2,10.1
			c2.7,2.7,6.3,4.2,10.1,4.2h113c3.8,0,7.4-1.5,10.1-4.2c2.7-2.7,4.2-6.3,4.2-10.1v-75C1171.4,76.9,1170.1,75.6,1168.4,75.6z"/>
		<path class="st1" d="M1080.7,42.7h49.7v9.6c0,1.7,1.4,3,3,3c1.7,0,3-1.4,3-3V28.7c0-1.7-1.3-3-3-3c-1.7,0-3,1.4-3,3v7.9h-49.7
			c-1.7,0-3,1.4-3,3S1079,42.7,1080.7,42.7z"/>
		<path class="st1" d="M1167.2,40.9l-0.2-0.2c-2.7-2.6-6.2-4.1-9.9-4.1h-10.8c-1.7,0-3,1.4-3,3s1.4,3,3,3h10.8
			c2.1,0,4.2,0.9,5.7,2.3l0.1,0.1c1.6,1.6,2.4,3.7,2.4,5.9v9.2h-129.6V51c0-2.1,0.9-4.2,2.3-5.8l0.1-0.1c1.6-1.6,3.7-2.4,5.9-2.4
			h20.7v9.6c0,1.7,1.3,3,3,3c1.7,0,3-1.4,3-3V28.7c0-1.7-1.4-3-3-3c-0.8,0-1.6,0.3-2.1,0.9c-0.6,0.6-0.9,1.3-0.8,2.1v7.9h-20.7
			c-3.8,0-7.4,1.5-10.1,4.2l-0.1,0.1c-2.6,2.7-4.1,6.3-4.1,10v12.2c0,1.7,1.4,3,3,3h135.6c1.7,0,3-1.4,3-3V51
			C1171.5,47.2,1170,43.6,1167.2,40.9z"/>
	</g>
	<g>
		<path class="st1" d="M1439.7,166v4.6c0,3.3,1.4,6.6,3.7,9c2.4,2.4,5.6,3.7,9,3.7h100.2c3.4,0,6.6-1.3,8.9-3.7
			c2.4-2.4,3.7-5.6,3.7-8.9V75.1v-11v-4.6c0-3.3-1.4-6.6-3.7-9c-2.4-2.4-5.6-3.7-9-3.7h-100.2c-3.4,0-6.6,1.3-8.9,3.7
			c-2.4,2.4-3.7,5.6-3.7,8.9 M1445,59.5c0-1.9,0.8-3.8,2.2-5.2c1.4-1.4,3.2-2.2,5.2-2.2h100.2c2,0,3.8,0.8,5.2,2.2
			c1.4,1.4,2.2,3.2,2.2,5.2v15.5c0,0.1,0,0.2,0,0.3v95.2c0,1.9-0.8,3.8-2.2,5.2c-1.4,1.4-3.2,2.2-5.2,2.2h-100.2
			c-2,0-3.8-0.8-5.2-2.2c-1.4-1.4-2.2-3.2-2.2-5.2"/>
		<g>
			<path class="st2" d="M1523.6,66.7h-42.4c-1.6,0-2.9,1.1-2.9,2.4c0,1.4,1.3,2.4,2.9,2.4h42.4c1.6,0,2.9-1.1,2.9-2.4
				C1526.5,67.8,1525.2,66.7,1523.6,66.7z"/>
			<path class="st1" d="M1534.6,119.4h-64.3c-1.6,0-2.9,1.1-2.9,2.4c0,1.4,1.3,2.4,2.9,2.4h64.3c1.6,0,2.9-1.1,2.9-2.4
				C1537.5,120.5,1536.2,119.4,1534.6,119.4z"/>
			<path class="st1" d="M1494.6,157.8h-24.2c-1.6,0-2.9,1.1-2.9,2.4c0,1.4,1.3,2.4,2.9,2.4h24.2c1.6,0,2.9-1.1,2.9-2.4
				C1497.4,158.9,1496.2,157.8,1494.6,157.8z"/>
			<path class="st1" d="M1534.6,136.1h-64.3c-1.6,0-2.9,1.1-2.9,2.4c0,1.4,1.3,2.4,2.9,2.4h64.3c1.6,0,2.9-1.1,2.9-2.4
				C1537.5,137.3,1536.2,136.1,1534.6,136.1z"/>
			<path class="st1" d="M1534.6,85.4h-64.3c-1.6,0-2.9,1.1-2.9,2.4c0,1.4,1.3,2.4,2.9,2.4h64.3c1.6,0,2.9-1.1,2.9-2.4
				C1537.5,86.5,1536.2,85.4,1534.6,85.4z"/>
			<path class="st1" d="M1534.6,102.2h-64.3c-1.6,0-2.9,1.1-2.9,2.4c0,1.4,1.3,2.4,2.9,2.4h64.3c1.6,0,2.9-1.1,2.9-2.4
				C1537.5,103.3,1536.2,102.2,1534.6,102.2z"/>
		</g>
		<path class="st1" d="M1545.1,30.1c-0.4-0.5-0.8-1-1.3-1.5c-2.4-2.4-5.6-3.7-9-3.7h-63.8c-3.4,0-6.6,1.3-8.9,3.7
			c-0.5,0.5-0.9,1-1.3,1.5H1545.1z"/>
		<path class="st1" d="M1556,41.1c-0.4-0.5-0.8-1-1.3-1.5c-2.4-2.4-5.6-3.7-9-3.7h-85.6c-3.4,0-6.6,1.3-8.9,3.7
			c-0.5,0.5-0.9,1-1.3,1.5H1556z"/>
	</g>
	<g>
		<path class="st1" d="M537.1,105.5c-1.6-0.7-3.4,0-4.1,1.6c-2.7,6-6.5,11.4-11.4,15.9c-0.6,0.6-1,1.4-1,2.3V164h-53.6v-11.6
			c0-0.9-0.4-1.8-1.1-2.4c-0.7-0.6-1.6-0.9-2.5-0.7l-14.4,2.1c-4-0.1-7.3-3.4-7.3-7.5v-18.7c0-1.7-1.4-3.1-3.1-3.1h-4.9
			c-1.5,0-2.7-0.4-3.2-1.1c-0.4-0.7-0.3-2,0.4-3.3l10.3-19.7c0.2-0.4,0.3-0.9,0.3-1.5V88c0-18.4,10.8-35.3,27.5-43.1
			c5.7-2.7,11.8-4.2,18.2-4.5c1.7-0.1,3.1-1.5,3-3.3c-0.1-1.7-1.5-3.1-3.3-3c-7.2,0.3-14.1,2-20.6,5.1C447.5,48,435.4,67.2,435.4,88
			v7.6l-10,19c-1.8,3.4-1.9,6.8-0.3,9.5c1.6,2.7,4.7,4.2,8.5,4.2h1.7v15.6c0,7.6,6.2,13.8,13.8,13.8c0.2,0,0.3,0,0.5,0l11-1.6v11.1
			c0,1.7,1.4,3.1,3.1,3.1h59.9c1.7,0,3.1-1.4,3.1-3.1v-40.5c5.1-4.9,9-10.6,11.9-17C539.4,108.1,538.6,106.2,537.1,105.5
			L537.1,105.5z M537.1,105.5"/>
		<path class="st1" d="M566.3,34.2h-57.6c-6.9,0-12.6,5.7-12.6,12.6v35.2c0,6.9,5.7,12.6,12.6,12.6h4.3v13.6c0,1.3,0.8,2.4,1.9,2.9
			c0.4,0.2,0.8,0.3,1.2,0.3c0.8,0,1.6-0.3,2.2-0.9l16.6-15.9h31.4c6.9,0,12.6-5.7,12.6-12.6V46.8C578.9,39.8,573.3,34.2,566.3,34.2
			L566.3,34.2z M572.7,81.9c0,3.5-2.8,6.3-6.3,6.3h-32.6c-0.8,0-1.6,0.3-2.1,0.9l-12.2,11.7v-9.5c0-1.7-1.4-3.1-3.1-3.1h-7.5
			c-3.5,0-6.3-2.8-6.3-6.3V46.8c0-3.5,2.8-6.3,6.3-6.3h57.6c3.5,0,6.3,2.8,6.3,6.3L572.7,81.9L572.7,81.9z M572.7,81.9"/>
		<path class="st2" d="M541.6,64.3c0,2.2-1.8,4-4,4c-2.2,0-4-1.8-4-4s1.8-4,4-4C539.8,60.3,541.6,62.1,541.6,64.3L541.6,64.3z
			 M541.6,64.3"/>
		<path class="st2" d="M555.7,64.3c0,2.2-1.8,4-4,4c-2.2,0-4-1.8-4-4s1.8-4,4-4C553.9,60.3,555.7,62.1,555.7,64.3L555.7,64.3z
			 M555.7,64.3"/>
		<path class="st2" d="M527.5,64.3c0,2.2-1.8,4-4,4c-2.2,0-4-1.8-4-4s1.8-4,4-4C525.6,60.3,527.5,62.1,527.5,64.3L527.5,64.3z
			 M527.5,64.3"/>
	</g>
	<g>
		<path class="st1" d="M366.4,62.3h-46.2v-34c0-1.7-1.3-3-3-3h-83.3c-1.7,0-3,1.3-3,3v143.4c0,1.7,1.3,3,3,3h132.5c1.7,0,3-1.3,3-3
			V65.3C369.4,63.6,368.1,62.3,366.4,62.3L366.4,62.3z M314.1,65.3v103.4h-77.2V31.3h77.2V65.3z M363.4,168.7h-43.2V68.3h43.2V168.7
			z M363.4,168.7"/>
		<path class="st2" d="M331.9,83.6h19.7c1.7,0,3-1.3,3-3c0-1.7-1.3-3-3-3h-19.7c-1.7,0-3,1.3-3,3C328.9,82.3,330.2,83.6,331.9,83.6
			L331.9,83.6z M331.9,83.6"/>
		<path class="st2" d="M331.9,98.8h19.7c1.7,0,3-1.3,3-3c0-1.7-1.3-3-3-3h-19.7c-1.7,0-3,1.3-3,3C328.9,97.5,330.2,98.8,331.9,98.8
			L331.9,98.8z M331.9,98.8"/>
		<path class="st2" d="M331.9,113.9h19.7c1.7,0,3-1.3,3-3c0-1.7-1.3-3-3-3h-19.7c-1.7,0-3,1.3-3,3
			C328.9,112.6,330.2,113.9,331.9,113.9L331.9,113.9z M331.9,113.9"/>
		<path class="st2" d="M331.9,129.1h19.7c1.7,0,3-1.3,3-3c0-1.7-1.3-3-3-3h-19.7c-1.7,0-3,1.3-3,3
			C328.9,127.8,330.2,129.1,331.9,129.1L331.9,129.1z M331.9,129.1"/>
		<path class="st2" d="M331.9,144.2h19.7c1.7,0,3-1.3,3-3c0-1.7-1.3-3-3-3h-19.7c-1.7,0-3,1.3-3,3
			C328.9,142.9,330.2,144.2,331.9,144.2L331.9,144.2z M331.9,144.2"/>
		<path class="st2" d="M331.9,159.4h19.7c1.7,0,3-1.3,3-3c0-1.7-1.3-3-3-3h-19.7c-1.7,0-3,1.3-3,3
			C328.9,158.1,330.2,159.4,331.9,159.4L331.9,159.4z M331.9,159.4"/>
		<path class="st1" d="M250.9,54.9c1.7,0,3-1.3,3-3v-6.7c0-1.7-1.3-3-3-3c-1.7,0-3,1.3-3,3v6.7C247.9,53.5,249.2,54.9,250.9,54.9
			L250.9,54.9z M250.9,54.9"/>
		<path class="st1" d="M267.3,54.9c1.7,0,3-1.3,3-3v-6.7c0-1.7-1.3-3-3-3c-1.7,0-3,1.3-3,3v6.7C264.3,53.5,265.6,54.9,267.3,54.9
			L267.3,54.9z M267.3,54.9"/>
		<path class="st1" d="M283.7,54.9c1.7,0,3-1.3,3-3v-6.7c0-1.7-1.3-3-3-3c-1.7,0-3,1.3-3,3v6.7C280.7,53.5,282,54.9,283.7,54.9
			L283.7,54.9z M283.7,54.9"/>
		<path class="st1" d="M300.1,54.9c1.7,0,3-1.3,3-3v-6.7c0-1.7-1.3-3-3-3c-1.7,0-3,1.3-3,3v6.7C297.1,53.5,298.4,54.9,300.1,54.9
			L300.1,54.9z M300.1,54.9"/>
		<path class="st1" d="M250.9,75.6c1.7,0,3-1.3,3-3v-6.7c0-1.7-1.3-3-3-3c-1.7,0-3,1.3-3,3v6.7C247.9,74.2,249.2,75.6,250.9,75.6
			L250.9,75.6z M250.9,75.6"/>
		<path class="st1" d="M267.3,75.6c1.7,0,3-1.3,3-3v-6.7c0-1.7-1.3-3-3-3c-1.7,0-3,1.3-3,3v6.7C264.3,74.2,265.6,75.6,267.3,75.6
			L267.3,75.6z M267.3,75.6"/>
		<path class="st1" d="M283.7,75.6c1.7,0,3-1.3,3-3v-6.7c0-1.7-1.3-3-3-3c-1.7,0-3,1.3-3,3v6.7C280.7,74.2,282,75.6,283.7,75.6
			L283.7,75.6z M283.7,75.6"/>
		<path class="st1" d="M300.1,75.6c1.7,0,3-1.3,3-3v-6.7c0-1.7-1.3-3-3-3c-1.7,0-3,1.3-3,3v6.7C297.1,74.2,298.4,75.6,300.1,75.6
			L300.1,75.6z M300.1,75.6"/>
		<path class="st1" d="M250.9,96.2c1.7,0,3-1.3,3-3v-6.7c0-1.7-1.3-3-3-3c-1.7,0-3,1.3-3,3v6.7C247.9,94.9,249.2,96.2,250.9,96.2
			L250.9,96.2z M250.9,96.2"/>
		<path class="st1" d="M267.3,96.2c1.7,0,3-1.3,3-3v-6.7c0-1.7-1.3-3-3-3c-1.7,0-3,1.3-3,3v6.7C264.3,94.9,265.6,96.2,267.3,96.2
			L267.3,96.2z M267.3,96.2"/>
		<path class="st1" d="M283.7,96.2c1.7,0,3-1.3,3-3v-6.7c0-1.7-1.3-3-3-3c-1.7,0-3,1.3-3,3v6.7C280.7,94.9,282,96.2,283.7,96.2
			L283.7,96.2z M283.7,96.2"/>
		<path class="st1" d="M300.1,96.2c1.7,0,3-1.3,3-3v-6.7c0-1.7-1.3-3-3-3c-1.7,0-3,1.3-3,3v6.7C297.1,94.9,298.4,96.2,300.1,96.2
			L300.1,96.2z M300.1,96.2"/>
		<path class="st1" d="M250.9,116.9c1.7,0,3-1.3,3-3v-6.7c0-1.7-1.3-3-3-3c-1.7,0-3,1.3-3,3v6.7
			C247.9,115.5,249.2,116.9,250.9,116.9L250.9,116.9z M250.9,116.9"/>
		<path class="st1" d="M267.3,116.9c1.7,0,3-1.3,3-3v-6.7c0-1.7-1.3-3-3-3c-1.7,0-3,1.3-3,3v6.7
			C264.3,115.5,265.6,116.9,267.3,116.9L267.3,116.9z M267.3,116.9"/>
		<path class="st1" d="M283.7,116.9c1.7,0,3-1.3,3-3v-6.7c0-1.7-1.3-3-3-3c-1.7,0-3,1.3-3,3v6.7C280.7,115.5,282,116.9,283.7,116.9
			L283.7,116.9z M283.7,116.9"/>
		<path class="st1" d="M300.1,116.9c1.7,0,3-1.3,3-3v-6.7c0-1.7-1.3-3-3-3c-1.7,0-3,1.3-3,3v6.7
			C297.1,115.5,298.4,116.9,300.1,116.9L300.1,116.9z M300.1,116.9"/>
		<path class="st1" d="M250.9,137.6c1.7,0,3-1.3,3-3v-6.7c0-1.7-1.3-3-3-3c-1.7,0-3,1.3-3,3v6.7
			C247.9,136.2,249.2,137.6,250.9,137.6L250.9,137.6z M250.9,137.6"/>
		<path class="st1" d="M267.3,137.6c1.7,0,3-1.3,3-3v-6.7c0-1.7-1.3-3-3-3c-1.7,0-3,1.3-3,3v6.7
			C264.3,136.2,265.6,137.6,267.3,137.6L267.3,137.6z M267.3,137.6"/>
		<path class="st1" d="M283.7,137.6c1.7,0,3-1.3,3-3v-6.7c0-1.7-1.3-3-3-3c-1.7,0-3,1.3-3,3v6.7C280.7,136.2,282,137.6,283.7,137.6
			L283.7,137.6z M283.7,137.6"/>
		<path class="st1" d="M300.1,137.6c1.7,0,3-1.3,3-3v-6.7c0-1.7-1.3-3-3-3c-1.7,0-3,1.3-3,3v6.7
			C297.1,136.2,298.4,137.6,300.1,137.6L300.1,137.6z M300.1,137.6"/>
		<path class="st1" d="M250.9,158.2c1.7,0,3-1.3,3-3v-6.7c0-1.7-1.3-3-3-3c-1.7,0-3,1.3-3,3v6.7
			C247.9,156.9,249.2,158.2,250.9,158.2L250.9,158.2z M250.9,158.2"/>
		<path class="st1" d="M267.3,158.2c1.7,0,3-1.3,3-3v-6.7c0-1.7-1.3-3-3-3c-1.7,0-3,1.3-3,3v6.7
			C264.3,156.9,265.6,158.2,267.3,158.2L267.3,158.2z M267.3,158.2"/>
		<path class="st1" d="M283.7,158.2c1.7,0,3-1.3,3-3v-6.7c0-1.7-1.3-3-3-3c-1.7,0-3,1.3-3,3v6.7C280.7,156.9,282,158.2,283.7,158.2
			L283.7,158.2z M283.7,158.2"/>
		<path class="st1" d="M300.1,158.2c1.7,0,3-1.3,3-3v-6.7c0-1.7-1.3-3-3-3c-1.7,0-3,1.3-3,3v6.7
			C297.1,156.9,298.4,158.2,300.1,158.2L300.1,158.2z M300.1,158.2"/>
	</g>
	<g>
		<g>
			<path class="st1" d="M1373.2,50c-0.5-0.5-1.1-1-1.7-1.4v10.7c0,0,0,0,0,0v16.1c0,0.1,0,0.2,0,0.3v95.2c0,2-0.8,4-2.2,5.4
				c-1.5,1.5-3.4,2.2-5.4,2.2h-100.3c-0.2,0-0.3,0-0.5,0h-10.2c0.4,0.6,0.9,1.2,1.4,1.7c2.5,2.5,5.8,3.9,9.3,3.9h100.3
				c3.5,0,6.8-1.4,9.3-3.9c2.5-2.5,3.9-5.8,3.9-9.3V59.3C1377.1,55.9,1375.6,52.5,1373.2,50z"/>
		</g>
		<g>
			<path class="st1" d="M1361.8,34.9c-0.5-0.5-1.1-1-1.7-1.4v10.7c0,0,0,0,0,0v16.1c0,0.1,0,0.2,0,0.3v98.9c0,2-0.8,4-2.2,5.4
				c-1.5,1.5-3.4,2.2-5.4,2.2h-104.1c-0.2,0-0.3,0-0.5,0h-10.2c0.4,0.6,0.9,1.2,1.4,1.7c2.5,2.5,5.8,3.9,9.3,3.9h104.1
				c3.5,0,6.8-1.4,9.3-3.9c2.5-2.5,3.9-5.8,3.9-9.3V44.2C1365.7,40.7,1364.3,37.4,1361.8,34.9z"/>
		</g>
		<g>
			<path class="st1" d="M1223.9,143.5v4.7c0,3.5,1.4,6.8,3.9,9.3c2.5,2.5,5.8,3.9,9.3,3.9h104.1c3.5,0,6.8-1.4,9.3-3.9
				c2.5-2.5,3.9-5.8,3.9-9.3V49V37.6v-4.7c0-3.5-1.4-6.8-3.9-9.3c-2.5-2.5-5.8-3.9-9.3-3.9h-104.1c-3.5,0-6.8,1.4-9.3,3.9
				c-2.5,2.5-3.9,5.8-3.9,9.3 M1229.5,32.8c0-2,0.8-4,2.2-5.4c1.5-1.5,3.4-2.2,5.4-2.2h104.1c2,0,3.9,0.8,5.4,2.3
				c1.4,1.4,2.2,3.3,2.2,5.4V49c0,0.1,0,0.2,0,0.3v98.9c0,2-0.8,4-2.2,5.4c-1.5,1.5-3.4,2.2-5.4,2.2h-104.1c-2,0-3.9-0.8-5.4-2.3
				c-1.4-1.4-2.2-3.3-2.2-5.4"/>
			<g>
				<path class="st2" d="M1307.4,40.3h-36.5c-1.7,0-3,1.1-3,2.5c0,1.4,1.3,2.5,3,2.5h36.5c1.7,0,3-1.1,3-2.5
					C1310.4,41.4,1309.1,40.3,1307.4,40.3z"/>
				<path class="st1" d="M1322.6,95.1h-66.8c-1.7,0-3,1.1-3,2.5c0,1.4,1.3,2.5,3,2.5h66.8c1.7,0,3-1.1,3-2.5
					C1325.6,96.2,1324.2,95.1,1322.6,95.1z"/>
				<path class="st1" d="M1281,134.9h-25.2c-1.7,0-3,1.1-3,2.5c0,1.4,1.3,2.5,3,2.5h25.2c1.7,0,3-1.1,3-2.5
					C1284,136.1,1282.6,134.9,1281,134.9z"/>
				<path class="st1" d="M1322.6,112.5h-66.8c-1.7,0-3,1.1-3,2.5c0,1.4,1.3,2.5,3,2.5h66.8c1.7,0,3-1.1,3-2.5
					C1325.6,113.6,1324.2,112.5,1322.6,112.5z"/>
				<path class="st1" d="M1322.6,59.8h-66.8c-1.7,0-3,1.1-3,2.5c0,1.4,1.3,2.5,3,2.5h66.8c1.7,0,3-1.1,3-2.5
					C1325.6,60.9,1324.2,59.8,1322.6,59.8z"/>
				<path class="st1" d="M1322.6,77.2h-66.8c-1.7,0-3,1.1-3,2.5c0,1.4,1.3,2.5,3,2.5h66.8c1.7,0,3-1.1,3-2.5
					C1325.6,78.3,1324.2,77.2,1322.6,77.2z"/>
			</g>
		</g>
	</g>
	<g>
		<path class="st1" d="M87.8,141.3H49.7c-1.8,0-3.3,1.5-3.3,3.3c0,1.8,1.5,3.3,3.3,3.3H85c1,2.8,3.8,4.9,6.9,4.9h20.9
			c3.2,0,5.9-2,6.9-4.9h35.3c1.8,0,3.3-1.5,3.3-3.3c0-1.8-1.5-3.3-3.3-3.3H117c-1.8,0-3.3,1.5-3.3,3.3v0.7c0,0.5-0.4,0.9-0.9,0.9H92
			c-0.5,0-0.9-0.4-0.9-0.9v-0.7C91.1,142.8,89.6,141.3,87.8,141.3L87.8,141.3z M87.8,141.3"/>
		<path class="st1" d="M180.3,141.3h-8.6V65.8c0-1.8-1.5-3.3-3.3-3.3c-1.8,0-3.3,1.5-3.3,3.3v78.8c0,1.8,1.5,3.3,3.3,3.3h8.6v4.5
			c0,4.6-3.8,8.4-8.4,8.4H36.3c-4.6,0-8.4-3.8-8.4-8.4v-4.5h8.6c1.8,0,3.3-1.5,3.3-3.3V65.8c0-1.8-1.5-3.3-3.3-3.3
			c-1.8,0-3.3,1.5-3.3,3.3v75.5h-8.6c-1.8,0-3.3,1.5-3.3,3.3v7.8c0,8.2,6.7,15,15,15h132.3c8.2,0,15-6.7,15-15v-7.8
			C183.6,142.8,182.1,141.3,180.3,141.3L180.3,141.3z M180.3,141.3"/>
		<path class="st2" d="M115.2,55.7L96.3,74.5l-6.6-6.6c-1.3-1.3-3.3-1.3-4.6,0c-1.3,1.3-1.3,3.3,0,4.6l8.9,8.9c0.6,0.6,1.5,1,2.3,1
			c0.8,0,1.7-0.3,2.3-1l21.2-21.1c1.3-1.3,1.3-3.3,0-4.6C118.6,54.5,116.5,54.4,115.2,55.7L115.2,55.7z M115.2,55.7"/>
		<path class="st1" d="M142.9,32.7H62c-6.6,0-12,5.4-12,12v47.8c0,6.6,5.4,12,12,12h3.4v14.4c0,2.7,2.2,4.8,4.9,4.8
			c1.4,0,2.7-0.6,3.6-1.7l15.2-17.5h53.8c6.6,0,12-5.4,12-12V44.7C154.9,38.1,149.5,32.7,142.9,32.7L142.9,32.7z M148.4,92.5
			c0,3-2.4,5.5-5.5,5.5H87.6c-1,0-1.9,0.4-2.5,1.1l-13.1,15.2v-13c0-1.8-1.5-3.3-3.3-3.3H62c-3,0-5.5-2.5-5.5-5.5V44.7
			c0-3,2.5-5.5,5.5-5.5h80.9c3,0,5.5,2.5,5.5,5.5L148.4,92.5L148.4,92.5z M148.4,92.5"/>
	</g>
	<g>
		<g>
			<defs>
				<rect id="SVGID_3_" x="640.4" y="19.7" width="120" height="156"/>
			</defs>
			<clipPath id="SVGID_4_">
				<use xlink:href="#SVGID_3_"  style="overflow:visible;"/>
			</clipPath>
			<path class="st5" d="M735.6,154.4l0.8-0.7c0.1-0.1,0.2-0.2,0.3-0.3c0.4-0.5,9.7-11.2,13.2-19.4h1.7c4.8,0,8.7-3.9,8.7-8.7v-13.7
				c0-4.8-3.9-8.7-8.7-8.7h-1.9c-2.9-7.5-7.8-14.3-14.3-19.8c-1-3.4-0.3-7,2.1-10.8c1.3-2.1,1.3-4.8,0-6.9c-1.4-2.1-3.7-3.3-6.2-2.9
				c-9.2,1.1-14.6,5.3-17.8,9.2c-3-0.8-6.1-1.5-9.3-1.8c-1.7-0.2-3.3,1-3.5,2.8c-0.2,1.7,1,3.3,2.8,3.5c3.5,0.4,6.9,1.2,10.2,2.2
				c1.3,0.4,2.8-0.1,3.5-1.2c2.2-3.2,6.5-7.3,14.8-8.3c0.1,0,0.1,0,0.2,0.1c0.1,0.1,0,0.2,0,0.2c-3.3,5.3-4.3,10.7-2.8,15.9
				c0,0.9,0.4,1.8,1.2,2.3c6.7,5.4,11.5,12.2,14,19.8c0.4,1.3,1.6,2.2,3,2.2h4.1c1.3,0,2.4,1.1,2.4,2.4v13.7c0,1.3-1.1,2.4-2.4,2.4
				h-3.8c-1.4,0-2.6,0.9-3,2.2c-1.8,5.8-9.6,15.6-12.6,19.1l-0.7,0.6c-6.5,5.9-7.2,12.9-7.2,15v4.4h-18.1v-4.2c0-0.9-0.4-1.7-1-2.3
				c-0.7-0.6-1.6-0.9-2.4-0.8c-4.6,0.5-9.3,0.4-13.8-0.2c-0.9-0.1-1.8,0.2-2.5,0.8c-0.7,0.6-1.1,1.5-1.1,2.4v4.4h-18.1v-1.4
				c-0.2-3.3-1.2-11.8-7.8-18.5c-3.1-3.2-5.9-7.4-8.3-12.6c0,0,0-0.1-0.1-0.1c-1.4-2.7-2.5-5.6-3.2-8.7l0-0.1c0,0,0-0.1,0-0.1
				c-1.1-3.8-1-8.6-1-8.6v-0.1c0-2.1,0.2-4.2,0.5-6.3c0.3-1.7-0.9-3.3-2.6-3.6c-1.7-0.3-3.3,0.9-3.6,2.6c-0.4,2.4-0.6,4.8-0.6,7.3
				c0,0.6-0.1,6,1.3,10.6c0.8,3.4,2.1,6.7,3.7,9.9c2.7,5.8,5.9,10.6,9.4,14.3c5,5.2,5.9,11.7,6,14.4v1.3c0,0.1,0,0.2,0,0.4
				c0.2,3.2,2.9,5.7,6.1,5.7h18.3c3.4,0,6.1-2.8,6.1-6.1v-1c2.8,0.2,5.5,0.3,8.3,0.1v0.9c0,3.4,2.8,6.1,6.1,6.1h18.3
				c3.4,0,6.1-2.8,6.1-6.1v-4.5C730.5,163.7,730.8,158.7,735.6,154.4L735.6,154.4z M735.6,154.4"/>
		</g>
		<path class="st2" d="M640.7,80.7c0,14.2,11.6,25.8,25.8,25.8c14.2,0,25.8-11.6,25.8-25.8c0-14.2-11.6-25.8-25.8-25.8
			C652.3,54.9,640.7,66.4,640.7,80.7L640.7,80.7z M686,80.7c0,10.8-8.8,19.5-19.5,19.5c-10.8,0-19.6-8.8-19.6-19.5
			s8.8-19.5,19.6-19.5C677.3,61.1,686,69.9,686,80.7L686,80.7z M686,80.7"/>
		<path class="st2" d="M714,38c0-9.9-8.1-18-18-18c-9.9,0-18,8.1-18,18c0,9.9,8.1,18,18,18C705.9,56,714,47.9,714,38L714,38z
			 M684.2,38c0-6.5,5.3-11.7,11.7-11.7c6.5,0,11.7,5.3,11.7,11.7c0,6.5-5.3,11.7-11.7,11.7C689.5,49.8,684.2,44.5,684.2,38L684.2,38
			z M684.2,38"/>
	</g>
	<path class="st1" d="M102.4,375.6c-0.9,0-1.7-0.4-2.2-1.1l-0.4-0.5l-0.6-0.6l-0.6-0.5l-0.6-0.5l-0.6-0.4l-0.7-0.3l-0.7-0.3
		l-0.8-0.2l-0.9-0.2l-1-0.1l-1-0.1l-0.5,0h-39c0,0-0.1,0-0.1,0l-0.9,0c0,0-0.1,0-0.1,0l-0.9-0.1c0,0-0.1,0-0.1,0l-0.8-0.1
		c0,0-0.1,0-0.1,0l-0.8-0.1c0,0-0.1,0-0.1,0L48,370c0,0-0.1,0-0.1,0l-0.7-0.2c0,0-0.1,0-0.1,0l-0.7-0.2c0,0-0.1,0-0.1,0l-0.7-0.2
		c0,0-0.1,0-0.1-0.1l-0.6-0.3c0,0-0.1,0-0.1-0.1l-0.6-0.3c0,0-0.1,0-0.1-0.1l-0.6-0.3c0,0-0.1-0.1-0.1-0.1l-0.5-0.4
		c0,0-0.1-0.1-0.1-0.1l-0.5-0.4c0,0-0.1-0.1-0.1-0.1l-0.5-0.4c0,0-0.1-0.1-0.1-0.1l-0.5-0.4c0,0-0.1-0.1-0.1-0.1l-0.4-0.4
		c0,0-0.1-0.1-0.1-0.1l-0.4-0.5c0,0-0.1-0.1-0.1-0.1l-0.4-0.5c0,0-0.1-0.1-0.1-0.1l-0.3-0.5c0,0-0.1-0.1-0.1-0.1l-0.3-0.5
		c0,0,0-0.1-0.1-0.1l-0.3-0.6c0,0,0-0.1-0.1-0.1l-0.3-0.6c0,0,0-0.1-0.1-0.1l-0.2-0.6c0,0,0-0.1,0-0.1l-0.2-0.6c0,0,0-0.1,0-0.1
		l-0.2-0.7c0,0,0-0.1,0-0.1l-0.2-0.7c0,0,0-0.1,0-0.1l-0.1-0.7c0,0,0-0.1,0-0.1l-0.1-0.7c0,0,0-0.1,0-0.1l-0.1-0.8c0,0,0-0.1,0-0.1
		l-0.1-0.8c0,0,0-0.1,0-0.1l0-0.8c0,0,0-0.1,0-0.1l0-0.8c0,0,0,0,0-0.1V227.5c0-1.5,1.2-2.8,2.8-2.8H166c1.5,0,2.8,1.2,2.8,2.8
		v125.9c0,0,0,0,0,0.1l0,0.8c0,0,0,0.1,0,0.1l0,0.8c0,0,0,0.1,0,0.1l-0.1,0.8c0,0,0,0.1,0,0.1l-0.1,0.8c0,0,0,0.1,0,0.1l-0.1,0.7
		c0,0,0,0.1,0,0.1l-0.1,0.7c0,0,0,0.1,0,0.1l-0.2,0.7c0,0,0,0.1,0,0.1l-0.2,0.7c0,0,0,0.1,0,0.1l-0.2,0.6c0,0,0,0.1,0,0.1l-0.2,0.6
		c0,0,0,0.1-0.1,0.1l-0.3,0.6c0,0,0,0.1-0.1,0.1l-0.3,0.6c0,0,0,0.1-0.1,0.1l-0.3,0.5c0,0-0.1,0.1-0.1,0.1l-0.3,0.5
		c0,0-0.1,0.1-0.1,0.1l-0.4,0.5c0,0-0.1,0.1-0.1,0.1l-0.4,0.5c0,0-0.1,0.1-0.1,0.1l-0.4,0.4c0,0-0.1,0.1-0.1,0.1l-0.5,0.4
		c0,0-0.1,0.1-0.1,0.1l-0.5,0.4c0,0-0.1,0.1-0.1,0.1l-0.5,0.4c0,0-0.1,0.1-0.1,0.1l-0.5,0.4c0,0-0.1,0.1-0.1,0.1l-0.6,0.3
		c0,0-0.1,0.1-0.1,0.1l-0.6,0.3c0,0-0.1,0-0.1,0.1l-0.6,0.3c0,0-0.1,0-0.1,0.1l-0.7,0.2c0,0-0.1,0-0.1,0l-0.7,0.2c0,0-0.1,0-0.1,0
		L157,370c0,0-0.1,0-0.1,0l-0.8,0.2c0,0-0.1,0-0.1,0l-0.8,0.1c0,0-0.1,0-0.1,0l-0.8,0.1c0,0-0.1,0-0.1,0l-0.9,0.1c0,0-0.1,0-0.1,0
		l-0.9,0c0,0-0.1,0-0.1,0h-39l-1.1,0.1l-1,0.1l-0.9,0.2l-0.8,0.2l-0.8,0.3l-0.7,0.3l-0.7,0.4l-0.6,0.4L106,373l-0.6,0.6l-0.7,0.9
		C104.2,375.1,103.3,375.6,102.4,375.6C102.5,375.6,102.5,375.6,102.4,375.6z M52.8,365.1h39c0,0,0.1,0,0.1,0l0.6,0c0,0,0,0,0.1,0
		l0.6,0c0,0,0,0,0.1,0l0.6,0.1c0,0,0.1,0,0.1,0l0.6,0.1c0,0,0.1,0,0.1,0l0.6,0.1c0,0,0.1,0,0.1,0l0.5,0.1c0,0,0.1,0,0.1,0l0.5,0.1
		c0,0,0.1,0,0.1,0l0.5,0.1c0,0,0.1,0,0.1,0l0.5,0.2c0,0,0.1,0,0.1,0l0.5,0.2c0,0,0.1,0,0.1,0l0.5,0.2c0,0,0.1,0,0.1,0l0.5,0.2
		c0,0,0.1,0,0.1,0.1l0.5,0.2c0,0,0.1,0,0.1,0.1l0.4,0.3c0,0,0.1,0,0.1,0.1l0.4,0.3c0,0,0.1,0.1,0.1,0.1l0.4,0.3c0,0,0.1,0.1,0.1,0.1
		l0.4,0.3c0,0,0.1,0.1,0.1,0.1l0.2,0.2l0.2-0.2c0,0,0.1-0.1,0.1-0.1l0.4-0.3c0,0,0.1-0.1,0.1-0.1l0.4-0.3c0,0,0.1-0.1,0.1-0.1
		l0.4-0.3c0,0,0.1,0,0.1-0.1l0.4-0.3c0,0,0.1,0,0.1-0.1l0.5-0.2c0,0,0.1,0,0.1-0.1l0.5-0.2c0,0,0.1,0,0.1,0l0.5-0.2c0,0,0.1,0,0.1,0
		l0.5-0.2c0,0,0.1,0,0.1,0l0.5-0.2c0,0,0.1,0,0.1,0l0.5-0.1c0,0,0.1,0,0.1,0l0.5-0.1c0,0,0.1,0,0.1,0l0.5-0.1c0,0,0.1,0,0.1,0
		l0.6-0.1c0,0,0.1,0,0.1,0l0.6-0.1c0,0,0.1,0,0.1,0l0.6-0.1c0,0,0,0,0.1,0l0.6,0c0,0,0,0,0.1,0l0.6,0c0,0,0.1,0,0.1,0h39l0.8,0
		l0.8-0.1l0.7-0.1l0.7-0.1l0.6-0.1l0.6-0.2l0.6-0.2l0.5-0.2l0.5-0.2l0.5-0.2l0.4-0.2l0.4-0.3l0.4-0.3l0.4-0.3l0.3-0.3l0.3-0.3
		l0.3-0.4l0.3-0.4l0.3-0.4l0.2-0.4l0.2-0.4l0.2-0.5l0.2-0.5l0.2-0.5l0.2-0.5l0.1-0.6l0.1-0.6l0.1-0.6l0.1-0.7l0.1-0.7l0-0.7l0-0.7
		V230.2H41.7v123.1l0.1,1.4l0.1,0.7l0.1,0.7l0.1,0.6l0.1,0.6l0.1,0.6l0.2,0.5l0.2,0.5l0.2,0.5l0.2,0.5l0.2,0.4l0.2,0.4l0.3,0.4
		l0.3,0.4l0.3,0.4l0.3,0.3l0.3,0.3l0.4,0.3l0.4,0.3l0.4,0.3l0.4,0.2l0.5,0.2l0.5,0.2l0.5,0.2l0.6,0.2l0.6,0.2l0.6,0.1l0.7,0.1
		l0.7,0.1L52,365L52.8,365.1z"/>
	<g>
		<g>
			<defs>
				<rect id="SVGID_5_" x="1821.9" y="27.1" width="158.5" height="145.1"/>
			</defs>
			<clipPath id="SVGID_6_">
				<use xlink:href="#SVGID_5_"  style="overflow:visible;"/>
			</clipPath>
			<path class="st6" d="M1913.9,56.1h-27.2c-1.8,0-3.2,1.4-3.2,3.2c0,1.8,1.4,3.2,3.2,3.2h27.2c1.8,0,3.2-1.4,3.2-3.2
				C1917.1,57.5,1915.6,56.1,1913.9,56.1L1913.9,56.1z M1913.9,56.1"/>
			<path class="st6" d="M1946.6,165.4c-1.8,0-3.2,1.4-3.2,3.2c0,1.8,1.4,3.2,3.2,3.2h10.2c1.8,0,3.2-1.4,3.2-3.2v-44.3h7.2
				c1.8,0,3.2-1.4,3.2-3.2v-11.8h6.8c1.8,0,3.2-1.4,3.2-3.2c0-1.8-1.4-3.2-3.2-3.2h-27.9l-3.4-18.8c-0.8-4.4-4.7-7.6-9.1-7.6h-3.8
				l-2.2-36.6c-0.4-7.1-6.3-12.7-13.5-12.7h-32.4c-7.2,0-13.1,5.6-13.5,12.7l-2.2,36.6h-3.8c-4.5,0-8.3,3.2-9.1,7.6l-3.4,18.8h-27.9
				c-1.8,0-3.2,1.4-3.2,3.2c0,1.8,1.4,3.2,3.2,3.2h6.8V121c0,1.8,1.4,3.2,3.2,3.2h7v44.3c0,1.8,1.4,3.2,3.2,3.2h10.2
				c1.8,0,3.2-1.4,3.2-3.2c0-1.8-1.4-3.2-3.2-3.2h-7v-41.1h105.1v41.1H1946.6z M1936.8,82.8c1.4,0,2.6,1,2.8,2.4l3.2,17.7h-8.2
				l-1.2-20H1936.8z M1877.9,40.2c0.2-3.8,3.3-6.7,7.1-6.7h32.4c3.8,0,6.9,2.9,7.1,6.7l3.8,62.6h-54.1L1877.9,40.2z M1862.7,85.1
				c0.3-1.4,1.4-2.4,2.8-2.4h3.4l-1.2,20h-8.2L1862.7,85.1z M1838.3,117.8v-8.6H1964v8.6H1838.3z M1838.3,117.8"/>
		</g>
		<path class="st2" d="M1934.8,133.8c0-1.8-1.4-3.2-3.2-3.2h-60.9c-1.8,0-3.2,1.4-3.2,3.2c0,1.8,1.4,3.2,3.2,3.2h27.2v12.2h-13.1
			c-1.8,0-3.2,1.4-3.2,3.2v16.1c0,1.8,1.4,3.2,3.2,3.2c1.8,0,3.2-1.4,3.2-3.2v-12.9h9.9v12.9c0,1.8,1.4,3.2,3.2,3.2s3.2-1.4,3.2-3.2
			v-12.9h9.9v12.9c0,1.8,1.4,3.2,3.2,3.2c1.8,0,3.2-1.4,3.2-3.2v-16.1c0-1.8-1.4-3.2-3.2-3.2h-13.1V137h27.2
			C1933.4,137,1934.8,135.6,1934.8,133.8L1934.8,133.8z M1934.8,133.8"/>
	</g>
	<g>
		<g>
			<path class="st1" d="M1632.5,155.1v5c0,3.6,1.5,7.2,4.1,9.8c2.6,2.6,6.1,4.1,9.8,4.1h109.3c3.7,0,7.2-1.4,9.8-4.1
				c2.6-2.6,4.1-6.1,4.1-9.8V55.8v-12v-5c0-3.6-1.5-7.2-4.1-9.8c-2.6-2.6-6.1-4.1-9.8-4.1h-109.3c-3.7,0-7.2,1.4-9.8,4.1
				c-2.6,2.6-4.1,6.1-4.1,9.8 M1638.3,38.9c0-2.1,0.9-4.2,2.4-5.6c1.5-1.5,3.5-2.4,5.7-2.4h109.3c2.1,0,4.1,0.8,5.7,2.4
				c1.5,1.5,2.4,3.5,2.4,5.6v17c0,0.1,0,0.2,0,0.3v103.9c0,2.1-0.9,4.2-2.4,5.6c-1.5,1.5-3.5,2.4-5.7,2.4h-109.3
				c-2.1,0-4.1-0.8-5.7-2.4c-1.5-1.5-2.4-3.5-2.4-5.6"/>
		</g>
		<g>
			<line class="st2" x1="1660" y1="53.4" x2="1740.4" y2="53.4"/>
			<g>
				<path class="st2" d="M1666,55.9h-6c-1.4,0-2.6-1.2-2.6-2.6s1.2-2.6,2.6-2.6h6c1.4,0,2.6,1.2,2.6,2.6S1667.4,55.9,1666,55.9z"/>
				<path class="st2" d="M1720.7,55.9h-13.7c-1.4,0-2.6-1.2-2.6-2.6s1.2-2.6,2.6-2.6h13.7c1.4,0,2.6,1.2,2.6,2.6
					S1722.2,55.9,1720.7,55.9z M1693.4,55.9h-13.7c-1.4,0-2.6-1.2-2.6-2.6s1.2-2.6,2.6-2.6h13.7c1.4,0,2.6,1.2,2.6,2.6
					S1694.8,55.9,1693.4,55.9z"/>
				<path class="st2" d="M1740.4,55.9h-6c-1.4,0-2.6-1.2-2.6-2.6s1.2-2.6,2.6-2.6h6c1.4,0,2.6,1.2,2.6,2.6S1741.8,55.9,1740.4,55.9z
					"/>
			</g>
		</g>
		<path class="st1" d="M1658.6,146.5c0-0.8,0.4-1.5,0.9-2c-0.6-0.5-0.9-1.2-0.9-2v-11.9c0-1.4,1.2-2.6,2.6-2.6s2.6,1.2,2.6,2.6v11.9
			c0,0.5-0.1,1-0.4,1.3h9.7c1.4,0,2.6,1.2,2.6,2.6s-1.2,2.6-2.6,2.6h-11.9C1659.8,149.1,1658.6,147.9,1658.6,146.5z M1682.4,146.5
			c0-1.4,1.2-2.6,2.6-2.6h11.9c1.4,0,2.6,1.2,2.6,2.6s-1.2,2.6-2.6,2.6H1685C1683.6,149.1,1682.4,147.9,1682.4,146.5z M1658.6,118.8
			v-11.9c0-1.4,1.2-2.6,2.6-2.6s2.6,1.2,2.6,2.6v11.9c0,1.4-1.2,2.6-2.6,2.6S1658.6,120.2,1658.6,118.8z M1739,107.8V95.9
			c0-1.4,1.2-2.6,2.6-2.6s2.6,1.2,2.6,2.6v11.9c0,1.4-1.2,2.6-2.6,2.6S1739,109.2,1739,107.8z M1658.6,94.9V83
			c0-1.4,1.2-2.6,2.6-2.6s2.6,1.2,2.6,2.6v11.9c0,1.4-1.2,2.6-2.6,2.6S1658.6,96.4,1658.6,94.9z M1739,84v-5.3h-1.4
			c-1.4,0-2.6-1.2-2.6-2.6s1.2-2.6,2.6-2.6h4c1.4,0,2.6,1.2,2.6,2.6V84c0,1.4-1.2,2.6-2.6,2.6S1739,85.4,1739,84z M1663.5,76.1
			c0-1.4,1.2-2.6,2.6-2.6h11.9c1.4,0,2.6,1.2,2.6,2.6s-1.2,2.6-2.6,2.6h-11.9C1664.7,78.6,1663.5,77.5,1663.5,76.1z M1687.4,76.1
			c0-1.4,1.2-2.6,2.6-2.6h11.9c1.4,0,2.6,1.2,2.6,2.6s-1.2,2.6-2.6,2.6h-11.9C1688.5,78.6,1687.4,77.5,1687.4,76.1z M1711.2,76.1
			c0-1.4,1.2-2.6,2.6-2.6h11.9c1.4,0,2.6,1.2,2.6,2.6s-1.2,2.6-2.6,2.6h-11.9C1712.3,78.6,1711.2,77.5,1711.2,76.1z"/>
		<path class="st2" d="M1730.7,158.5c-1.3,0-2.4-1-2.6-2.3c-0.2-1.4,0.9-2.7,2.3-2.9c2.6-0.3,5.1-1.3,7.2-2.8
			c1.2-0.8,2.8-0.6,3.6,0.6c0.8,1.2,0.6,2.8-0.6,3.6c-2.8,2-6.2,3.3-9.6,3.7C1730.9,158.5,1730.8,158.5,1730.7,158.5z M1721.8,157.2
			c-0.3,0-0.7-0.1-1-0.2c-3.2-1.3-6.1-3.5-8.2-6.3c-0.9-1.1-0.7-2.7,0.4-3.6c1.1-0.9,2.7-0.7,3.6,0.4c1.6,2.1,3.7,3.7,6.1,4.7
			c1.3,0.6,1.9,2.1,1.4,3.4C1723.7,156.6,1722.8,157.2,1721.8,157.2z M1744.9,148.3c-0.4,0-0.7-0.1-1.1-0.2
			c-1.3-0.6-1.9-2.1-1.3-3.4c0.9-2,1.4-4.2,1.4-6.4c0-0.4,0-0.8,0-1.2c-0.1-1.4,1-2.7,2.4-2.8c1.4-0.1,2.7,1,2.8,2.4
			c0,0.5,0.1,1,0.1,1.5c0,3-0.6,5.9-1.9,8.6C1746.8,147.7,1745.9,148.3,1744.9,148.3z M1711,143.5c-1.3,0-2.4-0.9-2.5-2.2
			c-0.2-1-0.2-2.1-0.2-3.1c0-3.5,0.9-7,2.6-10c0.7-1.2,2.3-1.7,3.5-1c1.2,0.7,1.7,2.3,1,3.5c-1.3,2.3-1.9,4.9-1.9,7.5
			c0,0.8,0.1,1.6,0.2,2.3c0.2,1.4-0.8,2.7-2.2,2.9C1711.3,143.4,1711.2,143.5,1711,143.5z M1743.6,130.9c-0.8,0-1.7-0.4-2.1-1.1
			c-1.5-2.2-3.4-4-5.8-5.1c-1.3-0.6-1.8-2.2-1.1-3.5c0.6-1.3,2.2-1.8,3.5-1.1c3.1,1.6,5.8,4,7.7,6.9c0.8,1.2,0.5,2.8-0.7,3.6
			C1744.5,130.7,1744,130.9,1743.6,130.9z M1719.4,125.5c-0.9,0-1.7-0.4-2.2-1.2c-0.7-1.2-0.4-2.8,0.9-3.5c3-1.8,6.4-2.9,9.9-3
			c1.4-0.1,2.6,1.1,2.7,2.5c0.1,1.4-1.1,2.6-2.5,2.7c-2.6,0.1-5.2,0.9-7.4,2.2C1720.3,125.4,1719.8,125.5,1719.4,125.5z"/>
	</g>
	<g>
		<path class="st2" d="M217.5,302c0.4,0.8,1.1,1.4,1.9,1.7l21.2,7.3c0.4,0.1,0.7,0.2,1.1,0.2c1.4,0,2.7-0.9,3.2-2.3l16.6-48.5
			l0.8,0.3c4.3,1.5,9.1,1.3,13.2-0.7l2.1-1c2.5-1.2,5.3-1.4,7.9-0.5l38.7,13.3c-0.4,1.5-1.2,3.2-2.5,4.2c-1.6,1.1-4,1.1-7.1,0
			l-17.3-5.9c-0.9-0.3-1.9-0.2-2.7,0.2c-0.8,0.4-1.4,1.2-1.7,2.1c0,0.1-2.5,9-10,13.1c-4.7,2.5-10.7,2.6-17.6,0.2
			c-1.8-0.6-3.7,0.3-4.3,2.1c-0.6,1.8,0.3,3.7,2.1,4.3c4.1,1.4,7.9,2.1,11.5,2.1c4.2,0,8-0.9,11.5-2.8c6.8-3.7,10.4-10,12-13.8
			l14.2,4.9c5.3,1.8,9.7,1.5,13.1-0.8c5.4-3.7,5.8-11,5.8-11.8c0-1.5-0.9-2.8-2.3-3.3l-41.3-14.2c-4.3-1.5-9-1.2-13.1,0.8l-2.1,1
			c-2.5,1.2-5.4,1.4-8,0.5l-3.4-1.2c-0.2-0.1-0.4-0.2-0.6-0.3l-21.1-7.3c-1.8-0.6-3.7,0.3-4.3,2.1l-17.8,51.8
			C217.1,300.3,217.2,301.2,217.5,302L217.5,302z M240.4,253l14.8,5.1l-15.6,45.5l-14.8-5.1L240.4,253z M240.4,253"/>
		<path class="st1" d="M252.4,332.7c1.7,3.4,5,5.3,8.5,5.5c0,1.5,0.3,2.9,1,4.3c1.2,2.4,3.1,4.1,5.7,5c1,0.4,2.1,0.5,3.2,0.5
			c1.5,0,2.9-0.3,4.3-1l1.8-0.9c0.1,1,0.4,2.1,0.9,3c1.2,2.4,3.1,4.1,5.7,5c1,0.4,2.1,0.5,3.2,0.5c1.5,0,2.9-0.3,4.3-1l38.5-18.9
			c8.6-4.2,16.5-9.6,23.6-16.1l8.6-7.9l19.7-9.6c1.7-0.8,2.3-2.8,1.5-4.5l-24-49.2c-0.4-0.8-1.1-1.4-1.9-1.7
			c-0.8-0.3-1.8-0.2-2.6,0.2l-20.1,9.8c-1.7,0.8-2.3,2.8-1.5,4.5l22.9,46.9l-7.1,6.5c-6.6,6-14,11.1-22,15L288,347.7
			c-0.7,0.4-1.6,0.4-2.4,0.1c-0.8-0.3-1.4-0.8-1.8-1.6c-0.4-0.7-0.4-1.6-0.1-2.4c0.3-0.8,0.8-1.4,1.6-1.8l21.5-10.5
			c1.7-0.8,2.3-2.8,1.5-4.5c-0.8-1.7-2.8-2.3-4.5-1.5l-21.5,10.5l-10.2,5c-0.7,0.4-1.6,0.4-2.4,0.1c-0.8-0.3-1.4-0.8-1.8-1.6
			c-0.4-0.7-0.4-1.6-0.1-2.4c0.3-0.8,0.8-1.4,1.6-1.8l30.9-15.1c1.7-0.8,2.3-2.8,1.5-4.5c-0.8-1.7-2.8-2.3-4.5-1.5l-34.7,17
			c-1.6,0.7-3.4,0.1-4.2-1.4c-0.4-0.7-0.4-1.6-0.1-2.4c0.3-0.8,0.8-1.4,1.6-1.8l13.7-6.7l17.8-8.7c1.7-0.8,2.3-2.8,1.5-4.5
			c-0.8-1.7-2.8-2.3-4.5-1.5l-27.7,13.5c-1.6,0.7-3.4,0.1-4.2-1.4c-0.7-1.6-0.1-3.4,1.4-4.2l14.7-7.2c1.7-0.8,2.3-2.8,1.5-4.5
			c-0.8-1.7-2.8-2.3-4.5-1.5l-14.7,7.2c-4.9,2.4-6.9,8.3-4.5,13.2c0.7,1.4,1.6,2.5,2.8,3.4C251.2,325.5,250.8,329.4,252.4,332.7
			L252.4,332.7z M340,260.5l14.1-6.9l21.1,43.2l-14.1,6.9L340,260.5z M340,260.5"/>
	</g>
	<g>
		<path class="st7" d="M567.7,302.4l-62.1-67.6c-0.6-0.6-1.4-1-2.2-1c-0.8,0-1.6,0.4-2.2,1l-61.9,67.6c-0.8,0.9-1,2.1-0.5,3.2
			c0.5,1.1,1.6,1.8,2.7,1.8h11.2v56c0,1.7,1.3,3,3,3h94.9c1.7,0,3-1.3,3-3v-56h12c1.2,0,2.3-0.7,2.7-1.8
			C568.7,304.5,568.5,303.2,567.7,302.4z M550.5,301.4c-1.7,0-3,1.3-3,3v56h-88.9v-56c0-1.7-1.3-3-3-3h-7.3l55.1-60.1l55.3,60.1
			H550.5z"/>
		<g>
			<path class="st2" d="M518.5,279.5c-3.8-3.8-8.9-5.9-14.3-5.9c-5.4,0-10.5,2.1-14.3,5.9c-7.9,7.9-7.9,20.7,0,28.5
				c1.2,1.2,2.5,2.2,4.2,3.2l0.2,0.1l0,29.4c0,0.7,0.3,1.3,0.7,1.8l7.4,7.4c0.9,0.9,2.6,0.9,3.5,0l7.4-7.4c0.5-0.5,0.7-1.1,0.7-1.8
				s-0.3-1.3-0.7-1.8l-2.7-2.7l2.6-2.6c0.5-0.5,0.7-1.1,0.7-1.8s-0.3-1.3-0.7-1.8l-2.6-2.6l2.6-2.7c0.5-0.5,0.7-1.1,0.7-1.8l0-11.7
				l0.2-0.1c1.5-0.9,3-2,4.2-3.3C526.4,300.2,526.4,287.4,518.5,279.5z M515,304.5c-1.3,1.3-2.8,2.3-4.5,3.2
				c-0.9,0.4-1.4,1.3-1.4,2.2l0,12.2l-3.7,3.7c-0.5,0.5-0.7,1.1-0.7,1.8c0,0.7,0.3,1.3,0.7,1.8l2.6,2.6l-2.6,2.6
				c-0.5,0.5-0.7,1.1-0.7,1.8s0.3,1.3,0.7,1.8l2.7,2.7l-3.8,3.8l-4.9-4.9l0-29.9c0-0.9-0.5-1.8-1.3-2.2c-2-1.1-3.4-2.1-4.6-3.2
				c-5.9-5.9-5.9-15.6,0-21.5c2.9-2.9,6.7-4.5,10.7-4.5c4.1,0,7.9,1.6,10.7,4.5C520.9,289,520.9,298.6,515,304.5z"/>
			<path class="st2" d="M510.4,287.2c-1.7-1.7-3.9-2.6-6.2-2.6c-2.3,0-4.5,0.9-6.2,2.6c-3.5,3.5-3.5,8.9,0,12.4
				c1.7,1.7,3.9,2.6,6.2,2.6c2.3,0,4.5-0.9,6.2-2.6c1.7-1.7,2.6-3.9,2.6-6.2C513,291.1,512.1,288.9,510.4,287.2z M506.9,296.1
				c-0.7,0.7-1.7,1.1-2.6,1.1c0,0,0,0,0,0c-1,0-1.9-0.4-2.6-1.1c-1.5-1.5-1.5-3.8,0-5.3c1.5-1.5,3.8-1.5,5.3,0
				c0.7,0.7,1.1,1.7,1.1,2.6C508,294.4,507.6,295.3,506.9,296.1z"/>
		</g>
	</g>
	<g>
		<path class="st2" d="M773.4,318.4l0.2-0.2l-52.9-48.4c1.4-1.8,2.6-3.6,3.8-5.4c3.9,2.8,9.8,2.4,13.3-1.1c4-4,4-10.6,0-14.6
			l-28.1-28.1c-3.9-3.9-10.7-3.9-14.6,0c-3.6,3.6-4,9.3-1.1,13.3c-5.5,3.6-11,8-16,13.1c-3,3-5.9,6.3-8.5,9.6
			c-3.8-2.1-9-1.4-12.2,1.8c-4,4-4,10.5,0,14.6l28.1,28.1c3.9,3.9,10.7,3.9,14.6,0c2-1.9,3-4.5,3-7.3c0-1.7-0.4-3.4-1.2-4.9
			c1.7-1.3,3.5-2.8,5.2-4.3l45.8,50.1l2,2.1l0.2-0.2c2.2,1.6,4.8,2.4,7.6,2.4c3.5,0,6.8-1.4,9.3-3.9c2.5-2.5,3.8-5.8,3.8-9.3
			C775.8,323.2,775,320.6,773.4,318.4z M767.8,331.1c-2.8,2.8-7.7,2.7-10.3,0.1l-2.3-2.6l0,0l-47.8-52.2l-2.2,2
			c-3,2.8-6.1,5.4-9.2,7.6l-2.8,2l2.7,2.7c0.8,0.8,1.3,2,1.3,3.2c0,1.2-0.5,2.3-1.3,3.2c-1.7,1.7-4.6,1.7-6.3,0l-28.1-28.1
			c-1.7-1.7-1.7-4.6,0-6.3c1.7-1.7,4.6-1.7,6.3,0l2.7,2.7l2-2.8c2.9-4,6.2-7.8,9.7-11.3c5.6-5.6,11.8-10.5,17.9-14l3.3-1.9l-4.1-4.1
			c-1.7-1.7-1.7-4.6,0-6.3c1.7-1.7,4.6-1.7,6.3,0l28.1,28.1c1.7,1.7,1.7,4.6,0,6.3c-1.7,1.7-4.6,1.7-6.3,0l-4.1-4.1l-1.9,3.3
			c-1.9,3.2-4.2,6.6-6.8,9.9l-1.7,2.1l52.4,47.9l0,0l2.2,2.1l0.4,0.3c1.4,1.4,2.1,3.2,2.1,5.2C770,327.9,769.2,329.7,767.8,331.1z"
			/>
		<path class="st1" d="M695.8,350.7c-1.8-4-5.8-6.7-10.3-6.7h-35.6c-4.5,0-8.5,2.7-10.3,6.7c-8.1,0.5-14.6,7.3-14.6,15.5v2.9h85.4h0
			v-2.9C710.4,357.9,703.9,351.2,695.8,350.7z M631.2,363.3c1.2-3.9,4.9-6.8,9.3-6.8h3.6l0.5-2.3c0.5-2.5,2.8-4.3,5.3-4.3h35.6
			c2.6,0,4.8,1.8,5.3,4.3l0.5,2.3h3.6c4.3,0,8,2.9,9.3,6.8H631.2z"/>
	</g>
	<g>
		<path class="st1" d="M936.4,320.3c0-1.3-1-2.3-2.3-2.3h-13.9c-1.3,0-2.3,1-2.3,2.3c0,1.3,1,2.3,2.3,2.3h13.9
			C935.4,322.6,936.4,321.6,936.4,320.3L936.4,320.3z M936.4,320.3"/>
		<path class="st1" d="M927.2,260.1v-11.6c0-1.3-1-2.3-2.3-2.3c-1.3,0-2.3,1-2.3,2.3v11.6c0,6.4,5.2,11.6,11.6,11.6h20.8v44
			c0,1.3,1,2.3,2.3,2.3c1.3,0,2.3-1,2.3-2.3v-46.3c0-1.3-1-2.3-2.3-2.3h-23.2C930.3,267,927.2,263.9,927.2,260.1L927.2,260.1z
			 M927.2,260.1"/>
		<path class="st1" d="M934.1,290.2h-18.5c-1.3,0-2.3,1-2.3,2.3c0,1.3,1,2.3,2.3,2.3h18.5c1.3,0,2.3-1,2.3-2.3
			C936.4,291.2,935.4,290.2,934.1,290.2L934.1,290.2z M934.1,290.2"/>
		<path class="st1" d="M908.6,292.5c0-1.3-1-2.3-2.3-2.3h-13.9c-1.3,0-2.3,1-2.3,2.3c0,1.3,1,2.3,2.3,2.3h13.9
			C907.6,294.8,908.6,293.8,908.6,292.5L908.6,292.5z M908.6,292.5"/>
		<path class="st1" d="M892.4,304.1c-1.3,0-2.3,1-2.3,2.3c0,1.3,1,2.3,2.3,2.3h4.6c1.3,0,2.3-1,2.3-2.3c0-1.3-1-2.3-2.3-2.3H892.4z
			 M892.4,304.1"/>
		<path class="st1" d="M892.4,280.9h23.2c1.3,0,2.3-1,2.3-2.3c0-1.3-1-2.3-2.3-2.3h-23.2c-1.3,0-2.3,1-2.3,2.3
			C890.1,279.9,891.1,280.9,892.4,280.9L892.4,280.9z M892.4,280.9"/>
		<path class="st1" d="M906.3,308.7h23.2c1.3,0,2.3-1,2.3-2.3c0-1.3-1-2.3-2.3-2.3h-23.2c-1.3,0-2.3,1-2.3,2.3
			C904,307.7,905,308.7,906.3,308.7L906.3,308.7z M906.3,308.7"/>
		<path class="st1" d="M920.2,331.9c-1.3,0-2.3,1-2.3,2.3c0,1.3,1,2.3,2.3,2.3h4.6c1.3,0,2.3-1,2.3-2.3c0-1.3-1-2.3-2.3-2.3H920.2z
			 M920.2,331.9"/>
		<path class="st1" d="M910.9,318h-18.5c-1.3,0-2.3,1-2.3,2.3c0,1.3,1,2.3,2.3,2.3h18.5c1.3,0,2.3-1,2.3-2.3
			C913.3,319,912.2,318,910.9,318L910.9,318z M910.9,318"/>
		<path class="st1" d="M910.9,331.9h-18.5c-1.3,0-2.3,1-2.3,2.3c0,1.3,1,2.3,2.3,2.3h18.5c1.3,0,2.3-1,2.3-2.3
			C913.3,332.9,912.2,331.9,910.9,331.9L910.9,331.9z M910.9,331.9"/>
		<path class="st2" d="M966.1,330l-4.6-4.6c-3.6-3.6-9-3.6-12.5,0l-30.3,30.3c-0.4,0.4-0.7,1-0.7,1.6v13.9c0,1.3,1,2.3,2.3,2.3h13.9
			c0.6,0,1.2-0.2,1.6-0.7l30.3-30.3C969.8,338.9,969.8,333.7,966.1,330L966.1,330z M945.9,334.9l3.7,3.7l-20.1,20.1l-3.7-3.7
			L945.9,334.9z M922.5,368.9v-10.6l10.6,10.6H922.5z M936.4,365.7l-3.7-3.7l20.1-20.1l3.7,3.7L936.4,365.7z M962.8,339.3l-3,3
			l-10.6-10.6l3-3c1.8-1.8,4.1-1.8,6,0l4.6,4.6C964.7,335.2,964.7,337.4,962.8,339.3L962.8,339.3z M962.8,339.3"/>
		<path class="st1" d="M949.6,258.5l-23.2-23.2c-0.4-0.4-1-0.7-1.6-0.7h-74.1c-6.4,0-11.6,5.2-11.6,11.6V362
			c0,6.4,5.2,11.6,11.6,11.6h60.2c1.3,0,2.3-1,2.3-2.3c0-1.3-1-2.3-2.3-2.3h-60.2c-3.8,0-6.9-3.1-6.9-6.9V246.2
			c0-3.8,3.1-6.9,6.9-6.9h73.1l22.5,22.5c0.9,0.9,2.4,0.9,3.3,0C950.5,260.8,950.5,259.4,949.6,258.5z"/>
		<path class="st1" d="M910.9,345.8h-18.5c-1.3,0-2.3,1-2.3,2.3c0,1.3,1,2.3,2.3,2.3h18.5c1.3,0,2.3-1,2.3-2.3
			C913.3,346.8,912.2,345.8,910.9,345.8L910.9,345.8z M910.9,345.8"/>
		<path class="st1" d="M880.8,278.6c0-1.3-1-2.3-2.3-2.3h-13.9c-1.3,0-2.3,1-2.3,2.3v13.9c0,1.3,1,2.3,2.3,2.3h13.9
			c1.3,0,2.3-1,2.3-2.3V278.6z M876.2,290.2H867v-9.3h9.3V290.2z M876.2,290.2"/>
		<path class="st1" d="M864.6,350.4h13.9c1.3,0,2.3-1,2.3-2.3v-13.9c0-1.3-1-2.3-2.3-2.3h-13.9c-1.3,0-2.3,1-2.3,2.3v13.9
			C862.3,349.4,863.4,350.4,864.6,350.4L864.6,350.4z M867,336.5h9.3v9.3H867V336.5z M867,336.5"/>
		<path class="st2" d="M867.6,321.9c0.4,0.4,1,0.7,1.6,0.7c0.1,0,0.2,0,0.2,0c0.7-0.1,1.3-0.4,1.7-1l9.3-13.9
			c0.7-1.1,0.4-2.5-0.6-3.2c-1.1-0.7-2.5-0.4-3.2,0.6l-7.7,11.5l-2.6-2.6c-0.9-0.9-2.4-0.9-3.3,0c-0.9,0.9-0.9,2.4,0,3.3
			L867.6,321.9z M867.6,321.9"/>
	</g>
	<g>
		<g>
			<path class="st1" d="M1037.4,353.7v4.6c0,3.3,1.4,6.6,3.7,9c2.4,2.4,5.6,3.7,9,3.7h100.2c3.4,0,6.6-1.3,8.9-3.7
				c2.4-2.4,3.7-5.6,3.7-8.9v-95.5v-11v-4.6c0-3.3-1.4-6.6-3.7-9c-2.4-2.4-5.6-3.7-9-3.7h-100.2c-3.4,0-6.6,1.3-8.9,3.7
				c-2.4,2.4-3.7,5.6-3.7,8.9 M1042.8,247.2c0-1.9,0.8-3.8,2.2-5.2c1.4-1.4,3.2-2.2,5.2-2.2h100.2c2,0,3.8,0.8,5.2,2.2
				c1.4,1.4,2.2,3.2,2.2,5.2v15.5c0,0.1,0,0.2,0,0.3v95.2c0,1.9-0.8,3.8-2.2,5.2c-1.4,1.4-3.2,2.2-5.2,2.2h-100.2
				c-2,0-3.8-0.8-5.2-2.2c-1.4-1.4-2.2-3.2-2.2-5.2"/>
			<g>
				<path class="st2" d="M1121.4,254.3H1079c-1.6,0-2.9,1.1-2.9,2.4c0,1.4,1.3,2.4,2.9,2.4h42.4c1.6,0,2.9-1.1,2.9-2.4
					C1124.3,255.4,1123,254.3,1121.4,254.3z"/>
				<path class="st1" d="M1132.3,307h-64.3c-1.6,0-2.9,1.1-2.9,2.4c0,1.4,1.3,2.4,2.9,2.4h64.3c1.6,0,2.9-1.1,2.9-2.4
					C1135.2,308.1,1133.9,307,1132.3,307z"/>
				<path class="st1" d="M1102.3,323.8h-34.2c-1.6,0-2.9,1.1-2.9,2.4c0,1.4,1.3,2.4,2.9,2.4h34.2c1.6,0,2.9-1.1,2.9-2.4
					C1105.2,324.9,1103.9,323.8,1102.3,323.8z"/>
				<path class="st1" d="M1132.3,273.1h-64.3c-1.6,0-2.9,1.1-2.9,2.4c0,1.4,1.3,2.4,2.9,2.4h64.3c1.6,0,2.9-1.1,2.9-2.4
					C1135.2,274.2,1133.9,273.1,1132.3,273.1z"/>
				<path class="st1" d="M1132.3,289.8h-64.3c-1.6,0-2.9,1.1-2.9,2.4c0,1.4,1.3,2.4,2.9,2.4h64.3c1.6,0,2.9-1.1,2.9-2.4
					C1135.2,290.9,1133.9,289.8,1132.3,289.8z"/>
			</g>
		</g>
		<path class="st2" d="M1122.3,323.7c-7.5,0-13.6,6.1-13.6,13.6c0,7.5,6.1,13.6,13.6,13.6c7.5,0,13.6-6.1,13.6-13.6
			C1135.8,329.8,1129.7,323.7,1122.3,323.7z M1122.3,346.3c-5,0-9.1-4.1-9.1-9.1s4.1-9.1,9.1-9.1s9.1,4.1,9.1,9.1
			S1127.3,346.3,1122.3,346.3z"/>
	</g>
	<g>
		<path class="st7" d="M1292.4,347.2c0-1.5-1.2-2.7-2.7-2.7h-41.2c-1.5,0-2.7,1.2-2.7,2.7v20.6c0,1.5,1.2,2.7,2.7,2.7h41.2
			c1.5,0,2.7-1.2,2.7-2.7V347.2z M1287,365.1h-35.8v-15.2h35.8V365.1z"/>
		<path class="st7" d="M1348.5,347.2c0-1.5-1.2-2.7-2.7-2.7h-41.2c-1.5,0-2.7,1.2-2.7,2.7v20.6c0,1.5,1.2,2.7,2.7,2.7h41.2
			c1.5,0,2.7-1.2,2.7-2.7V347.2z M1343,365.1h-35.8v-15.2h35.8V365.1z"/>
		<path class="st7" d="M1292.4,312.2c0-1.5-1.2-2.7-2.7-2.7h-41.2c-1.5,0-2.7,1.2-2.7,2.7v20.6c0,1.5,1.2,2.7,2.7,2.7h41.2
			c1.5,0,2.7-1.2,2.7-2.7V312.2z M1287,330h-35.8v-15.2h35.8V330z"/>
		<path class="st2" d="M1348.5,312.2c0-1.5-1.2-2.7-2.7-2.7h-41.2c-1.5,0-2.7,1.2-2.7,2.7v20.6c0,1.5,1.2,2.7,2.7,2.7h41.2
			c1.5,0,2.7-1.2,2.7-2.7V312.2z M1343,330h-35.8v-15.2h35.8V330z"/>
		<path class="st7" d="M1363.1,297.4l-63.7-62.4c-1-1-3-1-4.1,0l-63.4,62.4c-0.7,0.7-0.9,1.7-0.5,2.5c0.4,0.9,1.4,1.4,2.5,1.4h127.1
			c1.1,0,2.1-0.6,2.5-1.4C1364,299,1363.8,298.1,1363.1,297.4z M1240,296.6l57.4-56.5l0.3,0.3l57.4,56.2H1240z"/>
		<path class="st1" d="M1245.4,242.9v47.3l22.3-21v-26.3H1245.4z M1263.4,267.3l-13.8,13v-33.2h13.8V267.3z"/>
	</g>
	<g>
		<rect x="1477.4" y="261.7" class="st8" width="17.4" height="9.1"/>
		<path class="st1" d="M1492.3,338.3v29.2c0,1.4,1.1,2.5,2.5,2.5s2.5-1.1,2.5-2.5v-82.9h52.5v21.1c0,1.4,1.1,2.5,2.5,2.5
			c1.4,0,2.5-1.1,2.5-2.5v-21.1h5.5c1.4,0,2.5-1.1,2.5-2.5v-10.2c0-1.1-0.7-2.1-1.8-2.4l-65.6-20.4c-0.2-0.1-0.5-0.1-0.7-0.1
			c0,0,0,0,0,0h-27.2c0,0,0,0,0,0c-0.5,0-1,0.2-1.5,0.5l-27.6,20.4c-0.6,0.5-1,1.2-1,2v10.2c0,1.4,1.1,2.5,2.5,2.5h25v82.9
			c0,1.4,1.1,2.5,2.5,2.5c1.4,0,2.5-1.1,2.5-2.5v-6.8L1492.3,338.3z M1487.8,284.6l-17.7,17.7v-17.7H1487.8z M1536.2,276.5
			l-13.9-13.9l21.2,6.6L1536.2,276.5z M1516.8,264.3l15.3,15.3h-30.5L1516.8,264.3z M1492.3,268.3h-12.4v-4h12.4V268.3z
			 M1492.3,287.2v40.1l-20.1-20.1L1492.3,287.2z M1558,279.5h-17.7l7.9-7.9c0.2-0.2,0.4-0.5,0.5-0.8l9.2,2.9V279.5z M1497.4,254.8
			l16.6,5.2l-16.6,16.6V254.8z M1492.3,259.2h-14.9c-1.4,0-2.5,1.1-2.5,2.5v9.1c0,1.4,1.1,2.5,2.5,2.5h14.9v6.2h-22.2v-25.6h22.2
			V259.2z M1442.6,273.1l22.5-16.7v23.1h-22.5V273.1z M1470.1,353.4v-41.1l20.5,20.5L1470.1,353.4z M1470.1,353.4"/>
		<path class="st1" d="M1552.4,312c-1.4,0-2.5,1.1-2.5,2.5v1.8c0,1.4,1.1,2.5,2.5,2.5c1.4,0,2.5-1.1,2.5-2.5v-1.8
			C1555,313.1,1553.8,312,1552.4,312L1552.4,312z M1552.4,312"/>
		<path class="st2" d="M1561.7,322.9h-18.6c-1.4,0-2.5,1.1-2.5,2.5V344c0,1.4,1.1,2.5,2.5,2.5h18.6c1.4,0,2.5-1.1,2.5-2.5v-18.6
			C1564.2,324,1563.1,322.9,1561.7,322.9L1561.7,322.9z M1559.2,341.5h-13.5v-13.5h13.5V341.5z M1559.2,341.5"/>
	</g>
	<g>
		<path class="st1" d="M1750.7,297c0-3.6-2.9-6.5-6.5-6.5h-7.7v-7.2c0-19.7-15.8-35.7-35.2-35.7c-19.4,0-35.2,16-35.2,35.7v7.2h-7.8
			c-3.6,0-6.5,2.9-6.5,6.5v57.2c0,3.6,2.9,6.5,6.5,6.5h85.9c3.6,0,6.5-2.9,6.5-6.5V297z M1671.9,283.2c0-16.4,13.1-29.8,29.3-29.8
			c16.1,0,29.2,13.4,29.2,29.8v7.2h-58.5V283.2z M1744.7,354.8h-87.1v-58.5h87.1V354.8z"/>
		<path class="st9" d="M1701.2,315.4c-5.6,0-10.2,4.6-10.2,10.2c0,5.6,4.6,10.2,10.2,10.2c5.6,0,10.2-4.6,10.2-10.2
			C1711.4,320,1706.8,315.4,1701.2,315.4z M1701.2,332.4c-3.7,0-6.8-3-6.8-6.8s3-6.8,6.8-6.8s6.8,3,6.8,6.8
			S1704.9,332.4,1701.2,332.4z"/>
	</g>
	<g>
		<path class="st1" d="M1945.4,355.1h-16.1v-25.5h12.9c14.3,0,26-11.6,26-26c0-7.2-2.9-13.9-8.1-18.8c2-4.2,3-8.7,3-13.4
			c0-17.1-13.9-31-31-31c-16.7,0-30.3,13.2-31,29.8c-6.1,2.6-11.2,7.3-14.6,13c-1.6-0.3-3.3-0.5-5.1-0.5c-14.7,0-26.7,12-26.7,26.7
			c0,13.8,10.5,25.2,23.9,26.5v19.2h-24c-1.5,0-2.7,1.2-2.7,2.7s1.2,2.7,2.7,2.7h90.8c1.5,0,2.7-1.2,2.7-2.7
			S1946.9,355.1,1945.4,355.1z M1904.6,274.6c1.1-0.4,1.8-1.4,1.8-2.6c0-0.1,0-0.4,0-0.5c0-14.1,11.5-25.6,25.6-25.6
			c14.1,0,25.6,11.5,25.6,25.6c0,4.4-1.2,8.8-3.4,12.7c-0.7,1.2-0.4,2.6,0.7,3.5c4.9,3.9,7.8,9.8,7.8,16.1
			c0,11.3-9.2,20.5-20.5,20.5h-12.9V319c0,0,0,0,0,0v-11.5l9.7-9.7c1.1-1.1,1.1-2.8,0-3.8c-1.1-1.1-2.8-1.1-3.8,0l-5.8,5.8v-5.3
			c0,0,0,0,0,0v-19c0-1.5-1.2-2.7-2.7-2.7s-2.7,1.2-2.7,2.7v12.5l-3.2-3.2c0.6-1.2,1-2.5,1-4c0-4.8-3.9-8.8-8.8-8.8
			c-4.8,0-8.8,3.9-8.8,8.8s3.9,8.8,8.8,8.8c1.4,0,2.8-0.3,4-1l7,7v10.8c0,0,0,0,0,0v6l-6.3-6.3c-1.1-1.1-2.8-1.1-3.8,0
			c-1.1,1.1-1.1,2.8,0,3.8l10.1,10.1v4.1h-10.6c-3,0-6-0.5-8.8-1.6c2.3-3.9,3.5-8.4,3.5-13.3c0-11-6.7-20.5-16.2-24.5
			C1894.8,280.2,1899.3,276.5,1904.6,274.6z M1915.2,283.1c-0.1,0.1-0.1,0.1-0.1,0.2c-0.6,0.5-1.3,0.8-2.2,0.8
			c-1.8,0-3.3-1.5-3.3-3.3c0-1.8,1.5-3.3,3.3-3.3c1.8,0,3.3,1.5,3.3,3.3c0,0.8-0.3,1.6-0.8,2.2
			C1915.3,283.1,1915.2,283.1,1915.2,283.1z M1860.1,309.4c0-11.7,9.5-21.2,21.2-21.2c11.7,0,21.2,9.5,21.2,21.2
			c0,10.8-8.1,19.7-18.5,21v-10.1l9.7-9.7c1.1-1.1,1.1-2.8,0-3.8c-1.1-1.1-2.8-1.1-3.8,0l-5.8,5.8v-7.8c0-1.5-1.2-2.7-2.7-2.7
			c-1.5,0-2.7,1.2-2.7,2.7v14.4c0,0,0,0,0,0v11.2C1868.2,329.1,1860.1,320.2,1860.1,309.4z M1884,335.9c6.8-0.7,12.8-3.9,17.1-8.7
			c3.8,1.6,7.9,2.5,12.1,2.5h10.6v25.5h-10.1l3.8-3.8c1.1-1.1,1.1-2.8,0-3.8c-1.1-1.1-2.8-1.1-3.8,0l-3.8,3.8V346
			c0-1.5-1.2-2.7-2.7-2.7s-2.7,1.2-2.7,2.7v5.3l-3.8-3.8c-1.1-1.1-2.8-1.1-3.8,0c-1.1,1.1-1.1,2.8,0,3.8l3.8,3.8H1884V335.9z"/>
		<path class="st1" d="M1845.3,355.1h-7.7c-1.5,0-2.7,1.2-2.7,2.7s1.2,2.7,2.7,2.7h7.7c1.5,0,2.7-1.2,2.7-2.7
			S1846.8,355.1,1845.3,355.1z"/>
		<path class="st1" d="M1965.2,355.1h-10.6c-1.5,0-2.7,1.2-2.7,2.7s1.2,2.7,2.7,2.7h10.6c1.5,0,2.7-1.2,2.7-2.7
			S1966.7,355.1,1965.2,355.1z"/>
		<path class="st1" d="M1837.5,263.5h42.2c1.5,0,2.7-1.2,2.7-2.7c0-5.4-3.8-9.8-8.9-10.9c-2.6-5.8-8.4-9.6-14.9-9.6
			c-6.8,0-12.9,4.2-15.3,10.4c-4.8,0.8-8.5,5-8.5,10C1834.8,262.3,1836,263.5,1837.5,263.5z M1844.9,256.1c0.1,0,0.2,0,0.2,0
			c1.3,0.1,2.4-0.8,2.8-2.1c1.2-4.9,5.6-8.3,10.6-8.3c4.7,0,8.9,3,10.4,7.5c0.4,1.1,1.4,1.8,2.5,1.9c2.1,0.1,3.8,1.2,4.8,2.9h-35.2
			C1841.9,256.8,1843.3,256.1,1844.9,256.1z"/>
		<path class="st2" d="M1941.4,273.9c4.8,0,8.8-3.9,8.8-8.8c0-4.8-3.9-8.8-8.8-8.8s-8.8,3.9-8.8,8.8
			C1932.6,269.9,1936.5,273.9,1941.4,273.9z M1941.4,261.8c1.8,0,3.3,1.5,3.3,3.3c0,1.8-1.5,3.3-3.3,3.3c-1.8,0-3.3-1.5-3.3-3.3
			C1938.1,263.3,1939.5,261.8,1941.4,261.8z"/>
		<path class="st2" d="M1939,308c0,4.8,3.9,8.8,8.8,8.8s8.8-3.9,8.8-8.8s-3.9-8.8-8.8-8.8S1939,303.2,1939,308z M1951.1,308
			c0,1.8-1.5,3.3-3.3,3.3c-1.8,0-3.3-1.5-3.3-3.3c0-1.8,1.5-3.3,3.3-3.3C1949.6,304.7,1951.1,306.2,1951.1,308z"/>
	</g>
	<g>
		<path class="st1" d="M2097.4,313.3l23.5,0c0.7,0,1.4-0.3,1.8-0.8l6.5-6.5l6.5,6.5c0.5,0.5,1.2,0.8,1.9,0.8c0.7,0,1.4-0.3,1.9-0.8
			l6.5-6.5l6.5,6.5c0.5,0.5,1.2,0.8,1.9,0.8c0.7,0,1.4-0.3,1.9-0.8l14-14c1-1,1-2.7,0-3.7l-14-14c-0.5-0.5-1.2-0.8-1.9-0.8l-57.1,0
			l-0.9-1.5c-1.8-3-3.7-5.4-5.8-7.5c-14.1-14.1-37.1-14.1-51.2,0c-6.8,6.8-10.6,15.9-10.6,25.6c0,9.7,3.8,18.7,10.6,25.6
			c14.1,14.1,37.1,14.1,51.2,0c2.2-2.2,4.2-4.7,5.8-7.5L2097.4,313.3z M2093.5,309.5c-1.8,3.5-3.9,6.5-6.5,9.1
			c-12.1,12.1-31.7,12.1-43.8,0c-5.9-5.9-9.1-13.6-9.1-21.9c0-8.3,3.2-16,9.1-21.9c12.1-12.1,31.7-12.1,43.8,0
			c2.3,2.3,4.4,5.2,6.5,9.2c0.5,0.8,1.3,1.4,2.3,1.4l57.5,0l11.3,11.3l-10.3,10.3l-6.5-6.5c-0.5-0.5-1.2-0.8-1.9-0.8
			c-0.7,0-1.4,0.3-1.9,0.8l-6.5,6.5l-6.5-6.5c-0.5-0.5-1.2-0.8-1.8-0.8c-0.7,0-1.4,0.3-1.9,0.8l-7.6,7.6l-24,0l0,0
			C2094.8,308,2093.9,308.6,2093.5,309.5z"/>
		<path class="st2" d="M2054.2,306.9c2.8,2.8,6.4,4.3,10.2,4.3c3.8,0,7.4-1.5,10.2-4.3c2.8-2.8,4.3-6.4,4.3-10.2
			c0-3.8-1.5-7.4-4.3-10.2c-5.7-5.7-14.7-5.7-20.5,0c-2.8,2.8-4.3,6.4-4.3,10.2C2049.9,300.5,2051.4,304.1,2054.2,306.9z
			 M2057.9,303.2c-1.8-1.8-2.7-4.1-2.7-6.5c0-2.5,1-4.8,2.7-6.5c1.8-1.8,4.1-2.8,6.5-2.8c2.4,0,4.7,1,6.5,2.8
			c1.8,1.8,2.8,4.1,2.8,6.5c0,2.4-1,4.7-2.8,6.5c-1.8,1.8-4.1,2.8-6.5,2.8l0,0C2062,306,2059.7,305,2057.9,303.2z"/>
	</g>
	<g>
		<g>
			<line class="st10" x1="2100.1" y1="80.1" x2="2100.1" y2="104.7"/>
			<polyline class="st10" points="2164,125.1 2164,86.6 2164,57.4 2164,52.8 2100.1,52.8 2100.1,63.9 			"/>
			<polyline class="st10" points="2100.1,131 2100.1,154 2164,154 2164,140.7 			"/>
			<polyline class="st10" points="2100.1,61.8 2100.1,52.8 2040.9,52.8 2040.9,89.2 2100.1,89.2 2100.1,79.7 			"/>
			<polyline class="st10" points="2100.1,112.9 2100.1,88.9 2040.9,88.9 2040.9,141.7 2100.1,141.7 2100.1,128.5 			"/>
		</g>
	</g>
	<g>
		<path class="st1" d="M1140.7,531.5c0-1.3-1-2.3-2.3-2.3h-26.9c-1.3,0-2.3,1-2.3,2.3c0,1.3,1,2.3,2.3,2.3h26.9
			C1139.7,533.8,1140.7,532.8,1140.7,531.5L1140.7,531.5z M1140.7,531.5"/>
		<path class="st1" d="M1090.5,531.2c0-1.3-1-2.3-2.3-2.3h-18.9c-1.3,0-2.3,1-2.3,2.3c0,1.3,1,2.3,2.3,2.3h18.9
			C1089.5,533.6,1090.5,532.5,1090.5,531.2L1090.5,531.2z M1090.5,531.2"/>
		<path class="st1" d="M1069.3,541.3c-1.3,0-2.3,1-2.3,2.3c0,1.3,1,2.3,2.3,2.3h33.6c1.3,0,2.3-1,2.3-2.3c0-1.3-1-2.3-2.3-2.3
			H1069.3z M1069.3,541.3"/>
		<path class="st1" d="M1102.2,529.2h-4.5c-1.3,0-2.3,1-2.3,2.3c0,1.3,1,2.3,2.3,2.3h4.5c1.3,0,2.3-1,2.3-2.3
			C1104.5,530.2,1103.5,529.2,1102.2,529.2L1102.2,529.2z M1102.2,529.2"/>
		<path class="st1" d="M1128.6,541.3h-16.5c-1.3,0-2.3,1-2.3,2.3c0,1.3,1,2.3,2.3,2.3h16.5c1.3,0,2.3-1,2.3-2.3
			C1130.9,542.3,1129.9,541.3,1128.6,541.3L1128.6,541.3z M1128.6,541.3"/>
		<path class="st1" d="M1140.7,507.5c0-1.3-1-2.3-2.3-2.3h-13.9c-1.3,0-2.3,1-2.3,2.3c0,1.3,1,2.3,2.3,2.3h13.9
			C1139.7,509.8,1140.7,508.7,1140.7,507.5L1140.7,507.5z M1140.7,507.5"/>
		<path class="st1" d="M1131.8,462.2v-11.6c0-1.3-1-2.3-2.3-2.3c-1.3,0-2.3,1-2.3,2.3v11.6c0,6.4,5.2,11.6,11.6,11.6h20.8v44
			c0,1.3,1,2.3,2.3,2.3c1.3,0,2.3-1,2.3-2.3v-46.3c0-1.3-1-2.3-2.3-2.3h-23.2C1134.9,469.1,1131.8,466,1131.8,462.2L1131.8,462.2z
			 M1131.8,462.2"/>
		<path class="st1" d="M1120.1,468.4h-15.5c-1.3,0-2.3,1-2.3,2.3c0,1.3,1,2.3,2.3,2.3h15.5c1.3,0,2.3-1,2.3-2.3
			C1122.4,469.4,1121.4,468.4,1120.1,468.4L1120.1,468.4z M1120.1,468.4"/>
		<path class="st1" d="M1085.5,507.2c0-1.3-1-2.3-2.3-2.3h-13.9c-1.3,0-2.3,1-2.3,2.3c0,1.3,1,2.3,2.3,2.3h13.9
			C1084.5,509.5,1085.5,508.5,1085.5,507.2L1085.5,507.2z M1085.5,507.2"/>
		<path class="st1" d="M1104.6,485h37.2c1.3,0,2.3-1,2.3-2.3c0-1.3-1-2.3-2.3-2.3h-37.2c-1.3,0-2.3,1-2.3,2.3
			C1102.3,483.9,1103.3,485,1104.6,485L1104.6,485z M1104.6,485"/>
		<path class="st1" d="M1104.6,497h27.2c1.3,0,2.3-1,2.3-2.3c0-1.3-1-2.3-2.3-2.3h-27.2c-1.3,0-2.3,1-2.3,2.3
			C1102.3,496,1103.3,497,1104.6,497L1104.6,497z M1104.6,497"/>
		<path class="st1" d="M1069.3,517.3c-1.3,0-2.3,1-2.3,2.3c0,1.3,1,2.3,2.3,2.3h4.6c1.3,0,2.3-1,2.3-2.3c0-1.3-1-2.3-2.3-2.3H1069.3
			z M1069.3,517.3"/>
		<path class="st1" d="M1115.2,505.1h-22.5c-1.3,0-2.3,1-2.3,2.3c0,1.3,1,2.3,2.3,2.3h22.5c1.3,0,2.3-1,2.3-2.3
			C1117.6,506.2,1116.5,505.1,1115.2,505.1L1115.2,505.1z M1115.2,505.1"/>
		<path class="st2" d="M1170.7,532.1l-4.6-4.6c-3.6-3.6-9-3.6-12.5,0l-30.3,30.3c-0.4,0.4-0.7,1-0.7,1.6v13.9c0,1.3,1,2.3,2.3,2.3
			h13.9c0.6,0,1.2-0.2,1.6-0.7l30.3-30.3C1174.4,541,1174.4,535.8,1170.7,532.1L1170.7,532.1z M1150.6,537l3.7,3.7l-20.1,20.1
			l-3.7-3.7L1150.6,537z M1127.2,571v-10.6l10.6,10.6H1127.2z M1141.1,567.7l-3.7-3.7l20.1-20.1l3.7,3.7L1141.1,567.7z
			 M1167.5,541.4l-3,3l-10.6-10.6l3-3c1.8-1.8,4.1-1.8,6,0l4.6,4.6C1169.3,537.3,1169.3,539.5,1167.5,541.4L1167.5,541.4z
			 M1167.5,541.4"/>
		<path class="st1" d="M1154.3,460.6l-23.2-23.2c-0.4-0.4-1-0.7-1.6-0.7h-74.1c-6.4,0-11.6,5.2-11.6,11.6v115.8
			c0,6.4,5.2,11.6,11.6,11.6h60.2c1.3,0,2.3-1,2.3-2.3c0-1.3-1-2.3-2.3-2.3h-60.2c-3.8,0-6.9-3.1-6.9-6.9V448.3
			c0-3.8,3.1-6.9,6.9-6.9h73.1l22.5,22.5c0.9,0.9,2.4,0.9,3.3,0C1155.2,462.9,1155.2,461.5,1154.3,460.6z"/>
		<path class="st2" d="M1095.5,470.7c0-1.3-1-2.3-2.3-2.3h-23.9c-1.3,0-2.3,1-2.3,2.3v23.9c0,1.3,1,2.3,2.3,2.3h23.9
			c1.3,0,2.3-1,2.3-2.3V470.7z M1090.9,492.3h-19.3V473h19.3V492.3z M1090.9,492.3"/>
		<path class="st1" d="M1128.6,517.3h-45.5c-1.3,0-2.3,1-2.3,2.3c0,1.3,1,2.3,2.3,2.3h45.5c1.3,0,2.3-1,2.3-2.3
			C1130.9,518.3,1129.9,517.3,1128.6,517.3L1128.6,517.3z M1128.6,517.3"/>
	</g>
	<g>
		<path class="st11" d="M1672.8,500.8"/>
		<path class="st1" d="M1660.2,552.7h29.2c0.6,1.9,2.5,3.3,4.6,3.3h14.2c2.1,0,3.9-1.4,4.6-3.3h29.2c1.1,0,2-0.9,2-2
			c0-1.1-0.9-2-2-2h-31c-1.1,0-2,0.9-2,2v0.5c0,0.4-0.4,0.8-0.8,0.8h-14.2c-0.4,0-0.8-0.4-0.8-0.8v-0.5c0-1.1-0.9-2-2-2h-30.9
			c-1.1,0-2,0.9-2,2C1658.1,551.8,1659,552.7,1660.2,552.7L1660.2,552.7z M1660.2,552.7"/>
		<path class="st1" d="M1764.7,547.5h-6.7v-73c0-1.2-1-2.3-2.3-2.3c-1.2,0-2.3,1-2.3,2.3v75.3c0,1.2,1,2.3,2.3,2.3h6.7v3.6
			c0,3.6-3,6.5-6.5,6.5h-109.8c-3.6,0-6.5-3-6.5-6.5V552h6.7c1.2,0,2.3-1,2.3-2.3v-75.3c0-1.2-1-2.3-2.3-2.3c-1.2,0-2.3,1-2.3,2.3
			v73h-6.7c-1.2,0-2.3,1-2.3,2.3v5.9c0,6.1,5,11.1,11.1,11.1h109.9c6.1,0,11.1-5,11.1-11.1v-5.9C1767,548.5,1766,547.5,1764.7,547.5
			L1764.7,547.5z M1764.7,547.5"/>
		<path class="st2" d="M1730.3,448.9h-58.5c-4.7,0-8.5,3.8-8.5,8.5v34.5c0,4.7,3.8,8.5,8.5,8.5h2.7V511c0,1.8,1.5,3.3,3.3,3.3
			c1,0,1.9-0.4,2.5-1.1l11-12.8h39c4.7,0,8.5-3.8,8.5-8.5v-34.5C1738.8,452.6,1735,448.9,1730.3,448.9L1730.3,448.9z M1734.5,491.9
			c0,2.3-1.9,4.2-4.2,4.2h-40c-0.6,0-1.2,0.3-1.6,0.7l-9.9,11.4v-10c0-1.2-1-2.2-2.2-2.2h-4.8c-2.3,0-4.2-1.9-4.2-4.2v-34.5
			c0-2.3,1.9-4.2,4.2-4.2h58.5c2.3,0,4.2,1.9,4.2,4.2L1734.5,491.9L1734.5,491.9z M1734.5,491.9"/>
	</g>
	<g>
		<path class="st1" d="M1863.1,489.8c9.2,0,17.9-5.8,21.2-14.9c0.4-1.2-0.2-2.5-1.4-2.9c-5.6-2-11.7-1.7-17.1,0.9
			c1.4-1.8,2.9-3.5,4.5-5.1c0.9-0.9,0.9-2.3,0-3.2c-0.9-0.9-2.3-0.9-3.2,0c-1.2,1.2-2.3,2.4-3.3,3.6c-0.2-6.7-3.5-13.3-9.4-17.5
			c-1-0.7-2.4-0.5-3.2,0.5c-3.5,4.9-4.8,10.8-3.8,16.7c0.9,5.5,3.8,10.3,8.1,13.7c-0.7,1.7-1.4,3.5-2,5.3c-0.4-1-1-2-1.6-2.9
			c-3.2-5.1-8.2-8.6-14-9.9c-0.6-0.1-1.2,0-1.7,0.3c-0.5,0.3-0.9,0.8-1,1.4c-2.6,11.6,4.4,23.2,15.7,26.5c-0.1,2.4,0,4.8,0.3,7.2
			c-0.5-0.5-1.1-0.9-1.6-1.3c-4.8-3.5-10.7-5-16.7-4.1c-1.2,0.2-2.1,1.3-1.9,2.6c0.9,5.9,4.1,11.1,8.9,14.7
			c3.9,2.9,8.5,4.4,13.2,4.4c0.8,0,1.5,0,2.3-0.1c0.9,2.2,2,4.3,3.2,6.3c-7-2.2-15-1-21.1,4c-1,0.8-1.1,2.2-0.3,3.2
			c3.8,4.6,9.2,7.5,15.1,8.1c0.8,0.1,1.5,0.1,2.3,0.1c4.6,0,9.1-1.4,12.9-4.1c2.5,2.5,5.3,4.8,8.3,6.7c0.4,0.3,0.8,0.4,1.2,0.4
			c0.7,0,1.5-0.4,1.9-1c0.7-1,0.4-2.4-0.6-3.1c-2.9-1.9-5.5-4.1-8-6.5c-5.5-5.5-9.4-11.9-11.9-18.7c10.8-4.1,16.7-15.9,13.4-27.2
			c-0.4-1.2-1.6-1.9-2.8-1.5c-5.7,1.7-10.5,5.5-13.4,10.8c-0.1,0.2-0.2,0.3-0.3,0.5c0-4.8,0.7-9.6,2.1-14.3
			C1859.4,489.6,1861.2,489.8,1863.1,489.8L1863.1,489.8z M1850.8,497.5c-7.5-2.8-12.3-10.3-11.6-18.3c3.7,1.4,6.7,3.8,8.9,7.2
			C1850.2,489.8,1851.2,493.7,1850.8,497.5L1850.8,497.5z M1842.6,517.7c-3.2-2.3-5.5-5.6-6.6-9.3c0.1,0,0.2,0,0.3,0
			c7.9,0,14.9,5.2,17.2,12.8C1849.6,521.2,1845.8,520,1842.6,517.7L1842.6,517.7z M1852.8,542.7c-3.9-0.4-7.6-2-10.4-4.7
			c6.8-4.2,15.7-3.3,21.5,2.1C1860.6,542.2,1856.7,543.1,1852.8,542.7L1852.8,542.7z M1859.7,505.1c1.9-3.5,4.8-6.2,8.4-7.7
			c1.2,7.9-3.1,15.7-10.4,19C1857.1,512.5,1857.8,508.6,1859.7,505.1L1859.7,505.1z M1867.7,477c3.6-1.7,7.5-2.2,11.3-1.4
			c-3.7,7.1-11.7,10.9-19.5,9.3C1861.2,481.5,1864.1,478.7,1867.7,477L1867.7,477z M1851.9,467.2c-0.7-3.9,0-7.8,1.8-11.3
			c5.8,5.5,7.3,14.3,3.6,21.3C1854.4,474.6,1852.5,471.1,1851.9,467.2L1851.9,467.2z M1851.9,467.2"/>
		<path class="st1" d="M1949.1,525.7c4.7,0,9.3-1.5,13.2-4.4c4.8-3.5,8-8.8,8.9-14.7c0.2-1.2-0.7-2.4-1.9-2.6
			c-6.9-1-13.5,1.2-18.3,5.4c0.3-2.4,0.4-4.8,0.3-7.2c5.3-1.5,9.8-4.9,12.8-9.6c3.2-5.1,4.3-11.1,2.9-16.9c-0.3-1.2-1.5-2-2.7-1.7
			c-5.8,1.3-10.8,4.8-14,9.9c-0.6,0.9-1.1,1.9-1.6,2.9c-0.6-1.8-1.2-3.5-2-5.3c9.2-7.4,11.1-20.8,4.2-30.5c-0.3-0.5-0.9-0.8-1.5-0.9
			c-0.6-0.1-1.2,0-1.7,0.4c-4.9,3.5-8.1,8.6-9.1,14.5c-0.2,1-0.3,1.9-0.3,2.9c-1-1.2-2.1-2.4-3.3-3.6c-0.9-0.9-2.3-0.9-3.2,0
			c-0.9,0.9-0.9,2.3,0,3.2c1.6,1.6,3.1,3.4,4.5,5.1c-5.4-2.5-11.4-2.9-17.1-0.9c-1.2,0.4-1.8,1.7-1.4,2.9
			c3.3,9.2,11.9,14.9,21.2,14.9c1.8,0,3.7-0.2,5.5-0.7c1.4,4.7,2.1,9.5,2.1,14.3c-2.7-5.3-7.5-9.5-13.6-11.3
			c-1.2-0.4-2.5,0.3-2.8,1.5c-1.7,5.7-1,11.8,1.9,17.1c2.6,4.7,6.6,8.2,11.6,10.1c-2.5,6.8-6.4,13.2-11.9,18.7
			c-2.4,2.4-5.1,4.6-8,6.5c-1,0.7-1.3,2.1-0.6,3.1c0.4,0.7,1.2,1,1.9,1c0.4,0,0.9-0.1,1.2-0.4c3-1.9,5.7-4.2,8.3-6.7
			c3.9,2.7,8.4,4.1,12.9,4.1c6.5,0,12.9-2.8,17.4-8.2c0.4-0.5,0.6-1.1,0.5-1.7c-0.1-0.6-0.4-1.1-0.8-1.5c-4.6-3.8-10.5-5.6-16.4-5
			c-1.6,0.2-3.2,0.5-4.6,1c1.2-2,2.3-4.1,3.2-6.3C1947.6,525.7,1948.4,525.7,1949.1,525.7L1949.1,525.7z M1963,479.3
			c0.3,3.9-0.6,7.7-2.7,11.1c-2.1,3.3-5.2,5.8-8.9,7.2C1950.8,489.6,1955.5,482,1963,479.3L1963,479.3z M1966.2,508.4
			c-2.3,7.7-9.4,12.9-17.4,12.8C1951.1,513.5,1958.2,508.2,1966.2,508.4L1966.2,508.4z M1923.3,475.6c3.8-0.8,7.8-0.3,11.3,1.4
			c3.6,1.7,6.4,4.5,8.2,7.9C1935,486.6,1926.9,482.7,1923.3,475.6L1923.3,475.6z M1945,477.2c-1.8-3.4-2.4-7.4-1.8-11.3
			c0.7-3.9,2.5-7.4,5.4-10.1C1952.3,463,1950.9,471.8,1945,477.2L1945,477.2z M1948.7,535.4c3.9-0.4,7.8,0.5,11.1,2.5
			c-5.9,5.5-14.7,6.3-21.5,2.1C1941.2,537.5,1944.8,535.8,1948.7,535.4L1948.7,535.4z M1944.6,516.3c-3.6-1.6-6.5-4.3-8.4-7.7
			c-1.9-3.5-2.6-7.4-2-11.2C1941.5,500.6,1945.8,508.4,1944.6,516.3L1944.6,516.3z M1944.6,516.3"/>
	</g>
	<g>
		<path class="st1" d="M1541.3,453.4c-5.4-5.4-12.6-8.4-20.3-8.4c-7.7,0-14.9,3-20.3,8.4c-5.4,5.4-8.4,12.6-8.4,20.3
			c0,2.1,0.2,4.2,0.7,6.3l-38.8,47.7c-2.3,2.8-2.5,7-0.6,10.1c-2.9,4.2-2.1,10.1,2.1,14.3c5.6,5.6,15.8,6.8,25.8-3.2
			c5.8-5.8,14.2-9.1,19-4.3c3.5,3.5,3.6,10.9-4.4,18.9c-1.1,1.1-1.1,2.8,0,3.9c0.5,0.5,1.2,0.8,1.9,0.8c0.7,0,1.4-0.3,1.9-0.8
			c10.7-10.7,9.8-21.3,4.4-26.7c-3-3-7.4-4.4-12.1-3.8c-5,0.6-10.1,3.4-14.7,8.1c-7.8,7.8-14.6,6.6-18,3.2c-2.1-2.1-2.6-4.5-1.9-6.3
			c1.4,0.9,3.1,1.3,4.8,1.3c2,0,3.9-0.6,5.5-1.9l48.3-39.3c1.6,0.3,3.2,0.4,4.9,0.4c7.7,0,14.9-3,20.3-8.4s8.4-12.6,8.4-20.3
			C1549.7,466.1,1546.8,458.9,1541.3,453.4L1541.3,453.4z M1464.4,537.1c-1.2,1-3.2,0.9-4.3-0.2l-1.4-1.4c-1.1-1.1-1.2-3.1-0.2-4.3
			l36.7-45c1.4,2.9,3.3,5.6,5.6,7.9c2.6,2.6,5.7,4.7,9,6.1L1464.4,537.1z M1537.5,490.1c-4.4,4.4-10.2,6.8-16.4,6.8
			s-12-2.4-16.4-6.8c-4.4-4.4-6.8-10.2-6.8-16.4s2.4-12,6.8-16.4c4.4-4.4,10.2-6.8,16.4-6.8c6.2,0,12,2.4,16.4,6.8
			c4.4,4.4,6.8,10.2,6.8,16.4S1541.8,485.7,1537.5,490.1L1537.5,490.1z M1537.5,490.1"/>
		<path class="st9" d="M1534.1,462.2c-1.1-1.1-2.8-1.1-3.9,0c-1.1,1.1-1.1,2.8,0,3.9c2.1,2.1,3.3,5.2,3.3,8.5c0,3.2-1.2,6.3-3.3,8.5
			c-1.1,1.1-1,2.8,0,3.9c0.5,0.5,1.2,0.8,1.9,0.8c0.7,0,1.4-0.3,2-0.8c3.1-3.2,4.9-7.7,4.9-12.3
			C1539,469.8,1537.3,465.4,1534.1,462.2L1534.1,462.2z M1534.1,462.2"/>
	</g>
	<path class="st2" d="M2085.2,104.7c-1.2-1.1-3.1-1-4.2,0.2l-13.5,14.9l-7.6-8c-1.1-1.2-3-1.3-4.2-0.1c-1.2,1.1-1.3,3-0.1,4.2
		l9.8,10.4c0.6,0.6,1.4,0.9,2.2,0.9c0,0,0,0,0,0c0.8,0,1.6-0.4,2.2-1l15.6-17.3C2086.5,107.7,2086.4,105.8,2085.2,104.7z"/>
	<path class="st2" d="M1715.9,464.7c-1.2-1.1-3.1-1-4.2,0.2l-13.5,14.9l-7.6-8c-1.1-1.2-3-1.3-4.2-0.1c-1.2,1.1-1.3,3-0.1,4.2
		l9.8,10.4c0.6,0.6,1.4,0.9,2.2,0.9c0,0,0,0,0,0c0.8,0,1.6-0.4,2.2-1l15.6-17.3C1717.3,467.7,1717.2,465.8,1715.9,464.7z"/>
	<g>
		<path class="st1" d="M1282.3,527.4c-13.4,6.2-23.7,17.2-29.3,30.8c-0.5,1.1,0.1,2.4,1.2,2.8c0.3,0.1,0.5,0.2,0.8,0.2
			c0.9,0,1.7-0.5,2-1.4c5.1-12.6,14.7-22.7,27.1-28.5c1.1-0.5,1.6-1.8,1.1-2.9C1284.7,527.4,1283.4,526.9,1282.3,527.4L1282.3,527.4
			z M1282.3,527.4"/>
		<path class="st1" d="M1360.4,558.2c-5.5-13.6-15.9-24.6-29.3-30.8c-1.1-0.5-2.4,0-2.9,1.1c-0.5,1.1,0,2.4,1.1,2.9
			c12.4,5.8,22,15.9,27.1,28.5c0.3,0.8,1.2,1.4,2,1.4c0.3,0,0.5-0.1,0.8-0.2C1360.3,560.6,1360.8,559.3,1360.4,558.2L1360.4,558.2z
			 M1360.4,558.2"/>
		<path class="st1" d="M1343.5,477.2c0-20.4-16.6-37-37-37s-37,16.6-37,37c0,12.3,6.1,23.8,16.3,30.7c0.4,0.3,0.8,0.4,1.2,0.4
			c0.7,0,1.4-0.3,1.8-1c0.7-1,0.4-2.3-0.6-3c-9-6.1-14.4-16.2-14.4-27.1c0-18,14.7-32.7,32.7-32.7s32.7,14.7,32.7,32.7
			c0,10.6-5.2,20.6-13.9,26.7c-1,0.7-1.2,2-0.5,3c0.7,1,2,1.2,3,0.5C1337.7,500.6,1343.5,489.3,1343.5,477.2L1343.5,477.2z
			 M1343.5,477.2"/>
		<path class="st2" d="M1321.5,518.8h-4.5c2-2.8,2.9-7.1,2.9-13.3c0-7.3-5.9-13.2-13.2-13.2s-13.2,5.9-13.2,13.2
			c0,6.2,0.9,10.5,2.9,13.3h-4.5c-1.2,0-2.2,1-2.2,2.2v25.5c0,1.2,1,2.2,2.2,2.2h12.6v24c0,1.2,1,2.2,2.2,2.2c1.2,0,2.2-1,2.2-2.2
			v-24h12.6c1.2,0,2.2-1,2.2-2.2V521C1323.7,519.8,1322.7,518.8,1321.5,518.8L1321.5,518.8z M1297.8,505.6c0-4.9,4-8.9,8.9-8.9
			c4.9,0,8.9,4,8.9,8.9c0,13.3-4.5,13.3-8.9,13.3C1302.3,518.8,1297.8,518.8,1297.8,505.6L1297.8,505.6z M1319.3,544.4h-25.3v-21.2
			h25.3V544.4z M1319.3,544.4"/>
	</g>
	<g>
		<path class="st1" d="M729.8,457c0-2.6-1-5.1-2.9-7c-1.9-1.9-4.4-2.9-7-2.9h-79.1c-5.5,0-9.9,4.4-9.9,9.9V518
			c0,5.5,4.4,9.9,9.9,9.9h11.9v11.4c0,0.9,0.5,1.7,1.4,2.1c1,0.4,1.8,0.1,2.4-0.4l13.6-13h49.9c5.5,0,9.9-4.4,9.9-9.9V457z
			 M720,523.4h-50.8c-0.6,0-1.1,0.2-1.5,0.6l-10.4,10v-8.4c0-1.3-1-2.2-2.2-2.2h-14.2c-3,0-5.5-2.4-5.5-5.4V457c0-3,2.4-5.4,5.5-5.4
			h79.1c3,0,5.4,2.4,5.4,5.4v60.6l0,0.3C725.4,521,723,523.4,720,523.4z"/>
		<g>
			<path class="st2" d="M706.8,493.7c0-1.3-1-2.3-2.3-2.3h-11.9c-1.3,0-2.3,1-2.3,2.3c0,1.3,1,2.3,2.3,2.3h11.9
				C705.7,496,706.8,494.9,706.8,493.7L706.8,493.7z M706.8,493.7"/>
			<path class="st2" d="M671.6,493.4c0-1.3-1-2.3-2.3-2.3h-18.9c-1.3,0-2.3,1-2.3,2.3c0,1.3,1,2.3,2.3,2.3h18.9
				C670.6,495.7,671.6,494.7,671.6,493.4L671.6,493.4z M671.6,493.4"/>
			<path class="st2" d="M650.4,503.5c-1.3,0-2.3,1-2.3,2.3c0,1.3,1,2.3,2.3,2.3H684c1.3,0,2.3-1,2.3-2.3c0-1.3-1-2.3-2.3-2.3H650.4z
				 M650.4,503.5"/>
			<path class="st2" d="M683.3,491.3h-4.5c-1.3,0-2.3,1-2.3,2.3c0,1.3,1,2.3,2.3,2.3h4.5c1.3,0,2.3-1,2.3-2.3
				C685.6,492.4,684.6,491.3,683.3,491.3L683.3,491.3z M683.3,491.3"/>
			<path class="st2" d="M709.7,503.5h-16.5c-1.3,0-2.3,1-2.3,2.3c0,1.3,1,2.3,2.3,2.3h16.5c1.3,0,2.3-1,2.3-2.3
				C712,504.5,711,503.5,709.7,503.5L709.7,503.5z M709.7,503.5"/>
			<path class="st2" d="M666.6,469.4c0-1.3-1-2.3-2.3-2.3h-13.9c-1.3,0-2.3,1-2.3,2.3c0,1.3,1,2.3,2.3,2.3h13.9
				C665.6,471.7,666.6,470.7,666.6,469.4L666.6,469.4z M666.6,469.4"/>
			<path class="st2" d="M650.4,479.5c-1.3,0-2.3,1-2.3,2.3c0,1.3,1,2.3,2.3,2.3h4.6c1.3,0,2.3-1,2.3-2.3c0-1.3-1-2.3-2.3-2.3H650.4z
				 M650.4,479.5"/>
			<path class="st2" d="M696.3,467.3h-22.5c-1.3,0-2.3,1-2.3,2.3c0,1.3,1,2.3,2.3,2.3h22.5c1.3,0,2.3-1,2.3-2.3
				C698.6,468.4,697.6,467.3,696.3,467.3L696.3,467.3z M696.3,467.3"/>
			<path class="st2" d="M709.7,479.5h-45.5c-1.3,0-2.3,1-2.3,2.3c0,1.3,1,2.3,2.3,2.3h45.5c1.3,0,2.3-1,2.3-2.3
				C712,480.5,711,479.5,709.7,479.5L709.7,479.5z M709.7,479.5"/>
		</g>
		<path class="st1" d="M759.9,494.4h-15.5v4.5h15.5c3,0,5.5,2.4,5.5,5.4V549c0,3-2.4,5.4-5.5,5.4h-14.2c-1.3,0-2.2,1-2.2,2.2v8.4
			l-10.4-10c-0.4-0.4-0.9-0.6-1.5-0.6H697c-3,0-5.5-2.4-5.5-5.4l0-0.3v-6.6h-4.5v6.8c0,5.5,4.4,9.9,9.9,9.9h33.7l13.6,13
			c0.6,0.6,1.5,0.8,2.4,0.4c0.8-0.4,1.4-1.2,1.4-2.1v-11.4h11.9c5.5,0,9.9-4.4,9.9-9.9v-44.7C769.9,498.8,765.4,494.4,759.9,494.4z"
			/>
	</g>
	<g>
		<path class="st1" d="M929.9,457.3c0-2.6-1-5.1-2.9-7c-1.9-1.9-4.4-2.9-7-2.9h-79.1c-5.5,0-9.9,4.4-9.9,9.9v60.9
			c0,5.5,4.4,9.9,9.9,9.9h11.9v11.4c0,0.9,0.5,1.7,1.4,2.1c1,0.4,1.8,0.1,2.4-0.4l13.6-13H920c5.5,0,9.9-4.4,9.9-9.9V457.3z
			 M920,523.7h-50.8c-0.6,0-1.1,0.2-1.5,0.6l-10.4,10V526c0-1.3-1-2.2-2.2-2.2h-14.2c-3,0-5.5-2.4-5.5-5.4v-60.9
			c0-3,2.4-5.4,5.5-5.4H920c3,0,5.4,2.4,5.4,5.4V518l0,0.3C925.5,521.3,923,523.7,920,523.7z"/>
		<g>
			<path class="st2" d="M906.8,494c0-1.3-1-2.3-2.3-2.3h-11.9c-1.3,0-2.3,1-2.3,2.3c0,1.3,1,2.3,2.3,2.3h11.9
				C905.8,496.3,906.8,495.3,906.8,494L906.8,494z M906.8,494"/>
			<path class="st2" d="M871.7,493.7c0-1.3-1-2.3-2.3-2.3h-18.9c-1.3,0-2.3,1-2.3,2.3c0,1.3,1,2.3,2.3,2.3h18.9
				C870.6,496.1,871.7,495,871.7,493.7L871.7,493.7z M871.7,493.7"/>
			<path class="st2" d="M850.4,503.8c-1.3,0-2.3,1-2.3,2.3c0,1.3,1,2.3,2.3,2.3h33.6c1.3,0,2.3-1,2.3-2.3c0-1.3-1-2.3-2.3-2.3H850.4
				z M850.4,503.8"/>
			<path class="st2" d="M883.4,491.7h-4.5c-1.3,0-2.3,1-2.3,2.3c0,1.3,1,2.3,2.3,2.3h4.5c1.3,0,2.3-1,2.3-2.3
				C885.7,492.7,884.6,491.7,883.4,491.7L883.4,491.7z M883.4,491.7"/>
			<path class="st2" d="M909.8,503.8h-16.5c-1.3,0-2.3,1-2.3,2.3c0,1.3,1,2.3,2.3,2.3h16.5c1.3,0,2.3-1,2.3-2.3
				C912.1,504.8,911,503.8,909.8,503.8L909.8,503.8z M909.8,503.8"/>
			<path class="st2" d="M866.7,469.7c0-1.3-1-2.3-2.3-2.3h-13.9c-1.3,0-2.3,1-2.3,2.3c0,1.3,1,2.3,2.3,2.3h13.9
				C865.6,472,866.7,471,866.7,469.7L866.7,469.7z M866.7,469.7"/>
			<path class="st2" d="M850.4,479.8c-1.3,0-2.3,1-2.3,2.3c0,1.3,1,2.3,2.3,2.3h4.6c1.3,0,2.3-1,2.3-2.3c0-1.3-1-2.3-2.3-2.3H850.4z
				 M850.4,479.8"/>
			<path class="st2" d="M896.4,467.6h-22.5c-1.3,0-2.3,1-2.3,2.3c0,1.3,1,2.3,2.3,2.3h22.5c1.3,0,2.3-1,2.3-2.3
				C898.7,468.7,897.7,467.6,896.4,467.6L896.4,467.6z M896.4,467.6"/>
			<path class="st2" d="M909.8,479.8h-45.5c-1.3,0-2.3,1-2.3,2.3c0,1.3,1,2.3,2.3,2.3h45.5c1.3,0,2.3-1,2.3-2.3
				C912.1,480.8,911,479.8,909.8,479.8L909.8,479.8z M909.8,479.8"/>
		</g>
		<path class="st1" d="M960,494.7h-15.5v4.5H960c3,0,5.5,2.4,5.5,5.4v44.7c0,3-2.4,5.4-5.5,5.4h-14.2c-1.3,0-2.2,1-2.2,2.2v8.4
			l-10.4-10c-0.4-0.4-0.9-0.6-1.5-0.6h-34.6c-3,0-5.5-2.4-5.5-5.4l0-0.3v-6.6h-4.5v6.8c0,5.5,4.4,9.9,9.9,9.9h33.7l13.6,13
			c0.6,0.6,1.5,0.8,2.4,0.4c0.8-0.4,1.4-1.2,1.4-2.1v-11.4H960c5.5,0,9.9-4.4,9.9-9.9v-44.7C969.9,499.1,965.5,494.7,960,494.7z"/>
	</g>
	<g>
		<polygon class="st2" points="86.5,539.1 98.8,526.8 91.7,526.8 79.4,539.1 		"/>
		<polygon class="st2" points="73.2,539.1 85.5,526.8 78.4,526.8 66.1,539.1 		"/>
		<polygon class="st2" points="59.9,539.1 72.2,526.8 65.1,526.8 52.8,539.1 		"/>
		<polygon class="st2" points="46.7,539.1 58.9,526.8 51.8,526.8 39.6,539.1 		"/>
		<polygon class="st2" points="38.2,526.8 38.2,533.4 44.8,526.8 		"/>
	</g>
	<path class="st2" d="M122.9,519.9"/>
	<g>
		<path class="st1" d="M167,469.5h-9.5c-1.3,0-2.3,1-2.3,2.3c0,1.3,1,2.3,2.3,2.3h9.5c1.3,0,2.3-1,2.3-2.3
			C169.3,470.5,168.3,469.5,167,469.5L167,469.5z M167,469.5"/>
		<path class="st1" d="M123,469.5H67.4c-1.3,0-2.3,1-2.3,2.3c0,1.3,1,2.3,2.3,2.3H123c1.3,0,2.3-1,2.3-2.3
			C125.3,470.5,124.3,469.5,123,469.5L123,469.5z M123,469.5"/>
		<path class="st1" d="M67.4,486.1h37.2c1.3,0,2.3-1,2.3-2.3c0-1.3-1-2.3-2.3-2.3H67.4c-1.3,0-2.3,1-2.3,2.3
			C65.1,485,66.2,486.1,67.4,486.1L67.4,486.1z M67.4,486.1"/>
		<path class="st2" d="M58.4,471.8c0-1.3-1-2.3-2.3-2.3H32.2c-1.3,0-2.3,1-2.3,2.3v23.9c0,1.3,1,2.3,2.3,2.3h23.9
			c1.3,0,2.3-1,2.3-2.3V471.8z M53.8,493.4H34.5v-19.3h19.3V493.4z M53.8,493.4"/>
	</g>
	<g>
		<path class="st2" d="M523,461.5c-5.5,0-9.9,4.4-9.9,9.9s4.4,9.9,9.9,9.9s9.9-4.4,9.9-9.9S528.5,461.5,523,461.5z M523,476.8
			c-3,0-5.4-2.4-5.4-5.4c0-3,2.4-5.4,5.4-5.4s5.4,2.4,5.4,5.4C528.5,474.4,526,476.8,523,476.8z"/>
		<path class="st1" d="M490,466.5c-0.2-0.6-0.6-1-1.2-1.2c-0.5-0.2-1.2-0.3-1.7,0c-8.4,3.3-15.6,8.9-20.8,16.4
			c-5.3,7.6-8.1,16.6-8.1,26v8.9h-3.6c-1.9,0-3.5-1.6-3.5-3.5v-12.5c0-1.5,1-2.8,2.4-3.3c0.6-0.2,1-0.6,1.3-1.1
			c0.3-0.5,0.3-1.1,0.1-1.7c-0.3-0.9-1.2-1.6-2.1-1.6c-0.2,0-0.5,0-0.7,0.1c-3.3,1.1-5.5,4.1-5.5,7.6v12.5c0,4.4,3.6,8,8,8h5.7
			c1.3,0,2.4-1.1,2.4-2.3v-11.1c0-16.8,10.5-32.2,26.1-38.2c0.5-0.2,1-0.6,1.2-1.2C490.2,467.6,490.2,467,490,466.5z"/>
		<path class="st1" d="M560.3,500.5c0-3.5-2.2-6.5-5.5-7.6c-0.6-0.2-1.2-0.1-1.7,0.1c-0.5,0.3-0.9,0.7-1.1,1.3
			c-0.4,1.2,0.2,2.4,1.4,2.8c1.4,0.5,2.4,1.8,2.4,3.3v12.5c0,2-1.5,3.5-3.3,3.5h-4.3l0.1-0.6c0.5-2.7,0.7-5.5,0.7-8.2
			c0-5.8-1.1-11.4-3.2-16.7l-0.1-0.3l0.2-0.3c1.1-1,2.2-2.4,3.1-4c2.5-4.3,2.7-7.8,0.5-9.2l-3.8-2.8l0-0.3c0.1-0.9,0.2-1.9,0.2-2.8
			c0-1-0.1-1.9-0.2-2.8l0-0.3l0.1-0.1l3.7-2.7c2.2-1.4,2-4.9-0.5-9.2c-0.9-1.6-2-3-3.1-3.9c-2.1-1.8-3.6-1.6-4.6-1.1l-4.3,1.9
			l-0.2-0.2c-1.5-1.1-3.1-2.1-4.9-2.8l-0.3-0.1l-0.5-4.7c-0.1-2.6-3.3-4.2-8.2-4.2c-4.9,0-8.1,1.6-8.2,4.1l-0.5,4.7l-0.3,0.1
			c-1.7,0.7-3.4,1.7-4.9,2.8l-0.2,0.2l-4.3-1.9c-2.3-1.2-5.2,0.8-7.7,5c-2.5,4.3-2.7,7.8-0.5,9.2l3.8,2.8l0,0.3
			c-0.1,0.9-0.2,1.9-0.2,2.8c0,0.9,0.1,1.9,0.2,2.8l0,0.3l-0.1,0.1l-3.7,2.6c-0.9,0.6-1.9,1.9-1.3,4.5c0.3,1.4,0.9,3.1,1.8,4.7
			c2.5,4.3,5.4,6.2,7.7,5.1l4.3-1.9l0.2,0.2c1.5,1.1,3.2,2.1,4.9,2.8l0.3,0.1l0.5,4.6c0.1,2.6,3.3,4.2,8.2,4.2
			c4.9,0,8.1-1.6,8.2-4.1l0.5-4.6l0.3-0.1c1.7-0.7,3.4-1.7,4.9-2.8l0.2-0.2l4.1,1.8l0.1,0.2c2.2,5.1,3.3,10.5,3.3,16.1
			c0,18.1-11.6,33.9-28.8,39.2l-0.4,0.1l-0.2-0.3c-1.5-2.5-4.2-4-7.1-4h-8.9c-4.6,0-8.3,3.7-8.3,8.3s3.7,8.3,8.3,8.3h8.9
			c4.3,0,7.9-3.4,8.3-7.6l0-0.3l0.3-0.1c8.8-2.7,16.8-8.1,22.5-15.3c3.4-4.3,6.1-9.3,7.8-14.6l0.1-0.3h5.4c4.3,0,7.8-3.6,7.8-8
			V500.5z M508,554.8h-8.9c-2.1,0-3.9-1.7-3.9-3.8s1.7-3.8,3.9-3.8h8.9c1.8,0,3.4,1.2,3.8,2.9l0,0.1c0.1,0.3,0.1,0.5,0.1,0.8
			C511.9,553,510.1,554.8,508,554.8z M543,487l-0.2,0.2l-0.1-0.1l-5-2.2c-0.8-0.4-1.7-0.2-2.4,0.4c-1.9,1.7-4,2.9-6.4,3.7
			c-0.8,0.3-1.4,1-1.5,1.9l-0.6,5.6l-0.3,0.1c-0.4,0.1-1.6,0.5-3.5,0.5c-1.9,0-3.1-0.3-3.5-0.5l-0.3-0.1l-0.6-5.6
			c-0.1-0.9-0.7-1.6-1.5-1.9c-2.3-0.8-4.5-2-6.4-3.7c-0.7-0.6-1.6-0.7-2.4-0.4l-5.1,2.3L503,487c-0.3-0.3-1.2-1.2-2.2-2.8
			c-0.9-1.6-1.2-2.8-1.3-3.3l-0.1-0.3l4.5-3.3c0.7-0.5,1.1-1.4,0.9-2.3c-0.2-1.2-0.4-2.4-0.4-3.7c0-1.2,0.1-2.5,0.4-3.7
			c0.2-0.9-0.2-1.7-0.9-2.3l-4.6-3.3l0.1-0.3c0.1-0.4,0.4-1.6,1.3-3.3c0.9-1.6,1.8-2.5,2.2-2.8l0.2-0.2l5.2,2.3
			c0.8,0.4,1.7,0.2,2.4-0.4c1.9-1.6,4-2.9,6.3-3.7c0.8-0.3,1.4-1,1.5-1.9l0.6-5.6l0.3-0.1c0.4-0.1,1.6-0.5,3.5-0.5
			c1.9,0,3.1,0.3,3.5,0.5l0.3,0.1l0.6,5.6c0.1,0.9,0.7,1.6,1.5,1.9c2.3,0.8,4.5,2,6.3,3.7c0.7,0.6,1.6,0.7,2.4,0.4l5.2-2.3l0.2,0.2
			c0.3,0.3,1.2,1.1,2.2,2.8c0.9,1.6,1.2,2.8,1.3,3.3l0.1,0.3l-4.6,3.3c-0.7,0.5-1.1,1.4-0.9,2.3c0.2,1.2,0.4,2.5,0.4,3.7
			c0,1.2-0.1,2.5-0.4,3.7c-0.2,0.9,0.2,1.7,0.9,2.3l4.5,3.3l-0.1,0.3c-0.1,0.4-0.4,1.6-1.3,3.3C544.3,485.8,543.4,486.7,543,487z"/>
	</g>
	<g>
		<path class="st1" d="M2082.2,523.2c-2.3,1.9-3.6,4.6-3.6,7.6v10.5c0,1.3,1,2.4,2.4,2.4c1.3,0,2.4-1,2.4-2.4v-10.5
			c0-1.5,0.7-3,1.9-4c9.4-7.7,19.5-12.8,21.4-13.8c1-0.5,1.7-1.6,1.7-2.7v-14.9c0-0.8-0.4-1.5-1-2c-1.3-0.9-2-2.3-2-3.8v-15.4
			c0-6.4,5.2-11.5,11.5-11.5h3.3c6.4,0,11.5,5.2,11.5,11.5v15.4c0,1.5-0.8,3-2,3.8c-0.7,0.4-1,1.2-1,2v14.8c0,1.2,0.7,2.2,1.7,2.7
			c2,1,12.1,6.1,21.4,13.8c1.2,1,1.9,2.4,1.9,3.9v10.5c0,1.3,1,2.4,2.4,2.4c1.3,0,2.4-1,2.4-2.4v-10.5c0-3-1.3-5.7-3.6-7.6
			c-8.7-7.2-18.1-12.2-21.4-13.9v-12.7c2-1.8,3.1-4.3,3.1-6.9v-15.4c0-8.9-7.3-16.2-16.2-16.2h-3.3c-8.9,0-16.2,7.3-16.2,16.2v15.4
			c0,2.7,1.1,5.2,3.1,6.9v12.7C2100.3,511,2091,516,2082.2,523.2L2082.2,523.2z M2082.2,523.2"/>
		<path class="st1" d="M2075.9,473.1h-2.7c-7.5,0-13.7,6.1-13.7,13.7v12.5c0,2.2,0.9,4.3,2.5,5.8v9.9c-2.9,1.5-10.4,5.5-17.3,11.2
			c-2,1.6-3.1,4-3.1,6.5v8.6c0,1.3,1,2.4,2.4,2.4c1.3,0,2.4-1,2.4-2.4v-8.6c0-1.1,0.5-2.2,1.4-2.9c7.6-6.2,15.8-10.4,17.4-11.2
			c1-0.5,1.6-1.5,1.6-2.6V504c0-0.8-0.4-1.5-1-2c-0.9-0.6-1.5-1.6-1.5-2.7v-12.5c0-4.9,4-8.9,8.9-8.9h2.7c4.9,0,8.9,4,8.9,8.9v12.5
			c0,1.1-0.5,2.1-1.5,2.7c-0.7,0.4-1,1.2-1,2v9.9c0,1.3,1,2.4,2.4,2.4c1.3,0,2.4-1,2.4-2.4v-8.8c1.6-1.5,2.5-3.6,2.5-5.8v-12.5
			C2089.5,479.2,2083.4,473.1,2075.9,473.1L2075.9,473.1z M2075.9,473.1"/>
		<path class="st2" d="M2123.6,512.2c-1.3,0-2.4,1-2.4,2.4c0,1.5-1.2,2.7-2.7,2.7c-0.6,0-1.1-0.2-1.5-0.5c-0.1-0.1-0.2-0.2-0.3-0.3
			c-0.5-0.5-0.9-1.2-0.9-2c0-1.3-1-2.4-2.4-2.4c-1.3,0-2.4,1-2.4,2.4c0,1.9,0.7,3.6,1.9,4.9l-1.6,35.1c0,0.7,0.3,1.4,0.8,1.9l5,4.5
			c0.5,0.4,1,0.6,1.6,0.6c0.6,0,1.1-0.2,1.6-0.6l4.9-4.4c0.5-0.5,0.8-1.1,0.8-1.9l-1.5-35.6c1-1.3,1.6-2.9,1.6-4.6
			C2125.9,513.3,2124.8,512.2,2123.6,512.2L2123.6,512.2z M2118.6,556.1l-2.6-2.3l1.4-31.8c0.3,0,0.6,0.1,1,0.1c0.4,0,0.9,0,1.3-0.1
			l1.4,31.9L2118.6,556.1z M2118.6,556.1"/>
	</g>
	<g>
		<path class="st12" d="M98.4,662.8c-1.1-1.4-2.8-2.3-4.7-2.3H79.6c-3.2,0-5.8,2.6-5.8,5.8v43.2c0,3.2,2.6,5.8,5.8,5.8h14.1
			c1.5,0,2.9-0.6,4-1.6c2.5,2.5,5.9,4,9.7,4h40.1c9.2,0,15.1-4.9,16.1-13.3l5.4-34.2c0-0.1,0-0.3,0-0.4c0-7.5-6.1-13.7-13.7-13.7
			h-19.6v-14c0-6.4-1.9-11-5.6-13.7c-5.9-4.3-13.9-1.9-14.3-1.8c-1.2,0.4-2.1,1.5-2.1,2.8v16.4c0,12.4-14.5,16.7-15.1,16.9
			C98.5,662.7,98.4,662.7,98.4,662.8L98.4,662.8z M93.6,709.4h-14v-43h14V709.4z M99.5,668.5c0.2,0,0.4,0,0.6-0.1
			c0.8-0.2,19.5-5.6,19.5-22.6v-14c1.9-0.2,4.8-0.2,6.9,1.3c2.1,1.6,3.2,4.6,3.2,8.9V659c0,1.6,1.3,3,3,3h22.6
			c4.2,0,7.6,3.4,7.8,7.5l-5.4,34v0.1c-0.7,5.4-4.1,8.1-10.3,8.1h-40c-4.3,0-7.8-3.5-7.8-7.8L99.5,668.5L99.5,668.5z M99.5,668.5"/>
		<g>
			<path class="st12" d="M164.3,734.5v38.2H122v-38.2h-5.9v38.2H40.6V638.3h57.8v-5.9H37.6c-1.6,0-3,1.3-3,3v140.3c0,1.6,1.3,3,3,3
				h129.6c1.6,0,3-1.3,3-3v-41.1H164.3z"/>
			<path class="st12" d="M164.3,772.6"/>
			<path class="st12" d="M133.5,689.5"/>
			<path class="st12" d="M133.5,704.3"/>
			<path class="st12" d="M133.5,719.1"/>
			<path class="st12" d="M133.5,737.9"/>
			<path class="st12" d="M133.5,744.8h19.2c1.6,0,3-1.3,3-3c0-1.6-1.3-3-3-3h-19.2c-1.6,0-3,1.3-3,3
				C130.6,743.5,131.9,744.8,133.5,744.8L133.5,744.8z M133.5,744.8"/>
			<path class="st12" d="M133.5,759.7h19.2c1.6,0,3-1.3,3-3c0-1.6-1.3-3-3-3h-19.2c-1.6,0-3,1.3-3,3
				C130.6,758.3,131.9,759.7,133.5,759.7L133.5,759.7z M133.5,759.7"/>
			<path class="st12" d="M54.3,661.3c1.6,0,3-1.3,3-3v-6.5c0-1.6-1.3-3-3-3c-1.6,0-3,1.3-3,3v6.5C51.3,660,52.6,661.3,54.3,661.3
				L54.3,661.3z M54.3,661.3"/>
			<path class="st12" d="M70.3,661.3"/>
			<path class="st12" d="M86.3,661.3"/>
			<path class="st12" d="M54.3,681.6c1.6,0,3-1.3,3-3V672c0-1.6-1.3-3-3-3c-1.6,0-3,1.3-3,3v6.6C51.3,680.2,52.6,681.6,54.3,681.6
				L54.3,681.6z M54.3,681.6"/>
			<path class="st12" d="M70.3,681.6"/>
			<path class="st12" d="M86.3,681.6"/>
			<path class="st12" d="M102.4,681.6"/>
			<path class="st12" d="M54.3,701.8c1.6,0,3-1.3,3-3v-6.5c0-1.6-1.3-3-3-3c-1.6,0-3,1.3-3,3v6.5C51.3,700.5,52.6,701.8,54.3,701.8
				L54.3,701.8z M54.3,701.8"/>
			<path class="st12" d="M70.3,701.8"/>
			<path class="st12" d="M86.3,701.8"/>
			<path class="st12" d="M102.4,701.8"/>
			<path class="st12" d="M54.3,722c1.6,0,3-1.3,3-3v-6.5c0-1.6-1.3-3-3-3c-1.6,0-3,1.3-3,3v6.5C51.3,720.7,52.6,722,54.3,722
				L54.3,722z M54.3,722"/>
			<path class="st12" d="M70.3,722"/>
			<path class="st12" d="M86.3,722"/>
			<path class="st12" d="M102.4,722"/>
			<path class="st12" d="M54.3,742.2c1.6,0,3-1.3,3-3v-6.5c0-1.6-1.3-3-3-3c-1.6,0-3,1.3-3,3v6.5C51.3,740.9,52.6,742.2,54.3,742.2
				L54.3,742.2z M54.3,742.2"/>
			<path class="st12" d="M70.3,742.2c1.6,0,3-1.3,3-3v-6.5c0-1.6-1.3-3-3-3c-1.6,0-3,1.3-3,3v6.5C67.4,740.9,68.7,742.2,70.3,742.2
				L70.3,742.2z M70.3,742.2"/>
			<path class="st12" d="M86.3,742.2c1.6,0,3-1.3,3-3v-6.5c0-1.6-1.3-3-3-3c-1.6,0-3,1.3-3,3v6.5C83.4,740.9,84.7,742.2,86.3,742.2
				L86.3,742.2z M86.3,742.2"/>
			<path class="st12" d="M102.4,742.2c1.6,0,3-1.3,3-3v-6.5c0-1.6-1.3-3-3-3c-1.6,0-3,1.3-3,3v6.5
				C99.4,740.9,100.8,742.2,102.4,742.2L102.4,742.2z M102.4,742.2"/>
			<path class="st12" d="M54.3,762.4c1.6,0,3-1.3,3-3v-6.6c0-1.6-1.3-3-3-3c-1.6,0-3,1.3-3,3v6.6C51.3,761.1,52.6,762.4,54.3,762.4
				L54.3,762.4z M54.3,762.4"/>
			<path class="st12" d="M70.3,762.4c1.6,0,3-1.3,3-3v-6.6c0-1.6-1.3-3-3-3c-1.6,0-3,1.3-3,3v6.6C67.4,761.1,68.7,762.4,70.3,762.4
				L70.3,762.4z M70.3,762.4"/>
			<path class="st12" d="M86.3,762.4c1.6,0,3-1.3,3-3v-6.6c0-1.6-1.3-3-3-3c-1.6,0-3,1.3-3,3v6.6C83.4,761.1,84.7,762.4,86.3,762.4
				L86.3,762.4z M86.3,762.4"/>
			<path class="st12" d="M102.4,762.4c1.6,0,3-1.3,3-3v-6.6c0-1.6-1.3-3-3-3c-1.6,0-3,1.3-3,3v6.6
				C99.4,761.1,100.8,762.4,102.4,762.4L102.4,762.4z M102.4,762.4"/>
		</g>
	</g>
	<g>
		<path class="st2" d="M894.9,656.1c-1.1-1.4-2.8-2.3-4.7-2.3h-14.1c-3.2,0-5.8,2.6-5.8,5.8v43.2c0,3.2,2.6,5.8,5.8,5.8h14.1
			c1.5,0,2.9-0.6,4-1.6c2.5,2.5,5.9,4,9.7,4h40.1c9.2,0,15.1-4.9,16.1-13.3l5.4-34.2c0-0.1,0-0.3,0-0.4c0-7.5-6.1-13.7-13.7-13.7
			h-19.6v-14c0-6.4-1.9-11-5.6-13.7c-5.9-4.3-13.9-1.9-14.3-1.8c-1.2,0.4-2.1,1.5-2.1,2.8v16.4c0,12.4-14.5,16.7-15.1,16.9
			C895,656,895,656,894.9,656.1L894.9,656.1z M890.2,702.7h-14v-43h14V702.7z M896.1,661.8c0.2,0,0.4,0,0.6-0.1
			c0.8-0.2,19.5-5.6,19.5-22.6v-14c1.9-0.2,4.8-0.2,6.9,1.3c2.1,1.6,3.2,4.6,3.2,8.9v16.9c0,1.6,1.3,3,3,3h22.6
			c4.2,0,7.6,3.4,7.8,7.5l-5.4,34v0.1c-0.7,5.4-4.1,8.1-10.3,8.1h-40c-4.3,0-7.8-3.5-7.8-7.8L896.1,661.8L896.1,661.8z M896.1,661.8
			"/>
		<g>
			<path class="st1" d="M960.9,727.7v38.2h-42.3v-38.2h-5.9V766h-75.5V631.6h57.8v-5.9h-60.7c-1.6,0-3,1.3-3,3v140.3
				c0,1.6,1.3,3,3,3h129.6c1.6,0,3-1.3,3-3v-41.1H960.9z"/>
			<path class="st1" d="M960.9,765.9"/>
			<path class="st2" d="M930.1,682.8"/>
			<path class="st2" d="M930.1,697.6"/>
			<path class="st2" d="M930.1,712.4"/>
			<path class="st2" d="M930.1,731.1"/>
			<path class="st1" d="M930.1,738.1h19.2c1.6,0,3-1.3,3-3c0-1.6-1.3-3-3-3h-19.2c-1.6,0-3,1.3-3,3
				C927.1,736.8,928.4,738.1,930.1,738.1L930.1,738.1z M930.1,738.1"/>
			<path class="st1" d="M930.1,752.9h19.2c1.6,0,3-1.3,3-3c0-1.6-1.3-3-3-3h-19.2c-1.6,0-3,1.3-3,3
				C927.1,751.6,928.4,752.9,930.1,752.9L930.1,752.9z M930.1,752.9"/>
			<path class="st1" d="M850.8,654.6c1.6,0,3-1.3,3-3v-6.5c0-1.6-1.3-3-3-3c-1.6,0-3,1.3-3,3v6.5
				C847.9,653.3,849.2,654.6,850.8,654.6L850.8,654.6z M850.8,654.6"/>
			<path class="st1" d="M866.9,654.6"/>
			<path class="st1" d="M882.9,654.6"/>
			<path class="st1" d="M850.8,674.8c1.6,0,3-1.3,3-3v-6.6c0-1.6-1.3-3-3-3c-1.6,0-3,1.3-3,3v6.6
				C847.9,673.5,849.2,674.8,850.8,674.8L850.8,674.8z M850.8,674.8"/>
			<path class="st1" d="M866.9,674.8"/>
			<path class="st1" d="M882.9,674.8"/>
			<path class="st1" d="M899,674.8"/>
			<path class="st1" d="M850.8,695c1.6,0,3-1.3,3-3v-6.5c0-1.6-1.3-3-3-3c-1.6,0-3,1.3-3,3v6.5C847.9,693.7,849.2,695,850.8,695
				L850.8,695z M850.8,695"/>
			<path class="st1" d="M866.9,695"/>
			<path class="st1" d="M882.9,695"/>
			<path class="st1" d="M899,695"/>
			<path class="st1" d="M850.8,715.3c1.6,0,3-1.3,3-3v-6.5c0-1.6-1.3-3-3-3c-1.6,0-3,1.3-3,3v6.5
				C847.9,713.9,849.2,715.3,850.8,715.3L850.8,715.3z M850.8,715.3"/>
			<path class="st1" d="M866.9,715.3"/>
			<path class="st1" d="M882.9,715.3"/>
			<path class="st1" d="M899,715.3"/>
			<path class="st1" d="M850.8,735.5c1.6,0,3-1.3,3-3V726c0-1.6-1.3-3-3-3c-1.6,0-3,1.3-3,3v6.5
				C847.9,734.2,849.2,735.5,850.8,735.5L850.8,735.5z M850.8,735.5"/>
			<path class="st1" d="M866.9,735.5c1.6,0,3-1.3,3-3V726c0-1.6-1.3-3-3-3c-1.6,0-3,1.3-3,3v6.5
				C863.9,734.2,865.2,735.5,866.9,735.5L866.9,735.5z M866.9,735.5"/>
			<path class="st1" d="M882.9,735.5c1.6,0,3-1.3,3-3V726c0-1.6-1.3-3-3-3c-1.6,0-3,1.3-3,3v6.5C880,734.2,881.3,735.5,882.9,735.5
				L882.9,735.5z M882.9,735.5"/>
			<path class="st1" d="M899,735.5c1.6,0,3-1.3,3-3V726c0-1.6-1.3-3-3-3c-1.6,0-3,1.3-3,3v6.5C896,734.2,897.3,735.5,899,735.5
				L899,735.5z M899,735.5"/>
			<path class="st1" d="M850.8,755.7c1.6,0,3-1.3,3-3v-6.6c0-1.6-1.3-3-3-3c-1.6,0-3,1.3-3,3v6.6
				C847.9,754.4,849.2,755.7,850.8,755.7L850.8,755.7z M850.8,755.7"/>
			<path class="st1" d="M866.9,755.7c1.6,0,3-1.3,3-3v-6.6c0-1.6-1.3-3-3-3c-1.6,0-3,1.3-3,3v6.6
				C863.9,754.4,865.2,755.7,866.9,755.7L866.9,755.7z M866.9,755.7"/>
			<path class="st1" d="M882.9,755.7c1.6,0,3-1.3,3-3v-6.6c0-1.6-1.3-3-3-3c-1.6,0-3,1.3-3,3v6.6C880,754.4,881.3,755.7,882.9,755.7
				L882.9,755.7z M882.9,755.7"/>
			<path class="st1" d="M899,755.7c1.6,0,3-1.3,3-3v-6.6c0-1.6-1.3-3-3-3c-1.6,0-3,1.3-3,3v6.6C896,754.4,897.3,755.7,899,755.7
				L899,755.7z M899,755.7"/>
		</g>
	</g>
	<g>
		<path class="st1" d="M1497.4,730.1c-1.6,0-2.9,1.3-2.9,2.9v12.9c-5.9,1.3-10.3,6.6-10.3,12.9c0,7.3,5.9,13.2,13.2,13.2
			c7.3,0,13.2-5.9,13.2-13.2c0-6.3-4.4-11.6-10.3-12.9V733C1500.3,731.4,1499,730.1,1497.4,730.1L1497.4,730.1z M1504.9,758.9
			c0,4.1-3.3,7.4-7.4,7.4c-4.1,0-7.4-3.3-7.4-7.4c0-4.1,3.3-7.4,7.4-7.4C1501.5,751.4,1504.9,754.8,1504.9,758.9L1504.9,758.9z
			 M1504.9,758.9"/>
		<path class="st1" d="M1497.4,670.6c1.6,0,2.9-1.3,2.9-2.9v-12.9c5.9-1.3,10.3-6.6,10.3-12.9c0-7.3-5.9-13.2-13.2-13.2
			c-7.3,0-13.2,5.9-13.2,13.2c0,6.3,4.4,11.6,10.3,12.9v12.9C1494.5,669.3,1495.8,670.6,1497.4,670.6L1497.4,670.6z M1490,641.9
			c0-4.1,3.3-7.4,7.4-7.4c4.1,0,7.4,3.3,7.4,7.4c0,4.1-3.3,7.4-7.4,7.4C1493.3,649.3,1490,646,1490,641.9L1490,641.9z M1490,641.9"
			/>
		<path class="st1" d="M1543,703.3c1.3,5.9,6.6,10.3,12.9,10.3c7.3,0,13.2-5.9,13.2-13.2c0-7.3-5.9-13.2-13.2-13.2
			c-6.3,0-11.6,4.4-12.9,10.3h-12.9c-1.6,0-2.9,1.3-2.9,2.9c0,1.6,1.3,2.9,2.9,2.9H1543z M1548.5,700.4c0-4.1,3.3-7.4,7.4-7.4
			c4.1,0,7.4,3.3,7.4,7.4c0,4.1-3.3,7.4-7.4,7.4C1551.8,707.8,1548.5,704.5,1548.5,700.4L1548.5,700.4z M1548.5,700.4"/>
		<path class="st1" d="M1425.7,700.4c0,7.3,5.9,13.2,13.2,13.2c6.3,0,11.6-4.4,12.9-10.3h12.9c1.6,0,2.9-1.3,2.9-2.9
			c0-1.6-1.3-2.9-2.9-2.9h-12.9c-1.3-5.9-6.6-10.3-12.9-10.3C1431.6,687.1,1425.7,693.1,1425.7,700.4L1425.7,700.4z M1446.4,700.4
			c0,4.1-3.3,7.4-7.4,7.4c-4.1,0-7.4-3.3-7.4-7.4c0-4.1,3.3-7.4,7.4-7.4C1443,692.9,1446.4,696.3,1446.4,700.4L1446.4,700.4z
			 M1446.4,700.4"/>
		<path class="st1" d="M1518.5,721.4c-1.1,1.1-1.1,3,0,4.1l9.1,9.1c-1.3,2.1-2.1,4.5-2.1,7.1c0,3.5,1.4,6.9,3.9,9.3
			c2.5,2.5,5.8,3.9,9.3,3.9c3.5,0,6.9-1.4,9.3-3.9c5.2-5.2,5.2-13.6,0-18.7c-2.5-2.5-5.8-3.9-9.3-3.9c-2.5,0-5,0.7-7.1,2.1l-9.1-9.1
			C1521.4,720.3,1519.6,720.3,1518.5,721.4L1518.5,721.4z M1533.5,736.5c1.4-1.4,3.3-2.2,5.2-2.2c2,0,3.8,0.8,5.2,2.2
			c2.9,2.9,2.9,7.6,0,10.5c-1.4,1.4-3.3,2.2-5.2,2.2c-2,0-3.8-0.8-5.2-2.2c-1.4-1.4-2.2-3.3-2.2-5.2
			C1531.3,739.7,1532.1,737.9,1533.5,736.5L1533.5,736.5z M1533.5,736.5"/>
		<path class="st1" d="M1465.4,649.7c-2.5-2.5-5.8-3.9-9.3-3.9c-3.5,0-6.9,1.4-9.3,3.9c-2.5,2.5-3.9,5.8-3.9,9.3
			c0,3.5,1.4,6.9,3.9,9.3c2.5,2.5,5.8,3.9,9.3,3.9c2.5,0,5-0.7,7.1-2.1l9.1,9.1c0.6,0.6,1.3,0.9,2.1,0.9s1.5-0.3,2.1-0.9
			c1.1-1.1,1.1-3,0-4.1l-9.1-9.1c1.3-2.1,2.1-4.5,2.1-7.1C1469.3,655.5,1468,652.2,1465.4,649.7L1465.4,649.7z M1461.3,664.3
			c-1.4,1.4-3.3,2.2-5.2,2.2c-2,0-3.8-0.8-5.2-2.2c-1.4-1.4-2.2-3.3-2.2-5.2s0.8-3.9,2.2-5.2c1.4-1.4,3.3-2.2,5.2-2.2
			c2,0,3.8,0.8,5.2,2.2c1.4,1.4,2.2,3.3,2.2,5.2C1463.5,661,1462.7,662.9,1461.3,664.3L1461.3,664.3z M1461.3,664.3"/>
		<path class="st1" d="M1525.5,659c0,2.5,0.7,5,2.1,7.1l-9.1,9.1c-1.1,1.1-1.1,3,0,4.1c0.6,0.6,1.3,0.9,2.1,0.9
			c0.7,0,1.5-0.3,2.1-0.9l9.2-9.1c2.1,1.3,4.5,2.1,7.1,2.1c3.5,0,6.9-1.4,9.3-3.9c5.2-5.2,5.2-13.6,0-18.7c-2.5-2.5-5.8-3.9-9.3-3.9
			c-3.5,0-6.9,1.4-9.3,3.9C1526.9,652.2,1525.5,655.5,1525.5,659L1525.5,659z M1533.5,653.8c1.4-1.4,3.3-2.2,5.2-2.2
			c2,0,3.8,0.8,5.2,2.2c2.9,2.9,2.9,7.6,0,10.5c-1.4,1.4-3.3,2.2-5.2,2.2c-2,0-3.8-0.8-5.2-2.2c-1.4-1.4-2.2-3.3-2.2-5.2
			C1531.3,657,1532.1,655.2,1533.5,653.8L1533.5,653.8z M1533.5,653.8"/>
		<path class="st1" d="M1476.4,721.4c-1.1-1.1-3-1.1-4.1,0l-9.1,9.1c-2.1-1.3-4.5-2.1-7.1-2.1c-3.5,0-6.9,1.4-9.3,3.9
			c-2.5,2.5-3.9,5.8-3.9,9.3c0,3.5,1.4,6.9,3.9,9.3c2.5,2.5,5.8,3.9,9.3,3.9c3.5,0,6.9-1.4,9.3-3.9c4.5-4.5,5.1-11.3,1.8-16.4
			l9.1-9.1C1477.5,724.4,1477.5,722.5,1476.4,721.4L1476.4,721.4z M1461.3,747c-1.4,1.4-3.3,2.2-5.2,2.2c-2,0-3.8-0.8-5.2-2.2
			c-1.4-1.4-2.2-3.3-2.2-5.2c0-2,0.8-3.8,2.2-5.2c1.4-1.4,3.3-2.2,5.2-2.2c2,0,3.8,0.8,5.2,2.2
			C1464.2,739.4,1464.2,744.1,1461.3,747L1461.3,747z M1461.3,747"/>
	</g>
	<g>
		<path class="st1" d="M1920.2,742.8h-16.9v-4.9c0-1.2-1-2.2-2.2-2.2c-1.2,0-2.2,1-2.2,2.2v4.9h-16.9c-1.2,0-2.2,1-2.2,2.2
			c0,1.2,1,2.2,2.2,2.2h38.1c1.2,0,2.2-1,2.2-2.2C1922.4,743.7,1921.4,742.8,1920.2,742.8L1920.2,742.8z M1920.2,742.8"/>
		<path class="st1" d="M1897.8,700.5c-5.4,1.3-9.6,5.7-10.5,11.3h-8.7c0.9-3.3,3.9-5.7,7.4-5.7c1.2,0,2.2-1,2.2-2.2
			c0-1.2-1-2.2-2.2-2.2c-5.9,0-10.9,4.3-11.9,10h-17.1c-0.2-0.1-0.4-0.1-0.7-0.1c-1.2,0-2.2,1-2.2,2.2v11.8c0,2.7,2.2,5,5,5h83.6
			c2.7,0,5-2.2,5-5v-57.5c0-2.7-2.2-5-5-5h-23.4c-1.2,0-2.2,1-2.2,2.2c0,1.2,1,2.2,2.2,2.2h23.4c0.3,0,0.6,0.3,0.6,0.6v57.6
			c0,0.3-0.3,0.6-0.6,0.6h-83.6c-0.3,0-0.6-0.3-0.6-0.6v-9.5h78.1c1.2,0,2.2-1,2.2-2.2c0-1.2-1-2.2-2.2-2.2h-9.2
			c-1-5.7-5.9-10-11.9-10c-1.2,0-2.2,1-2.2,2.2c0,1.2,1,2.2,2.2,2.2c3.6,0,6.5,2.4,7.4,5.7h-8.6c-0.9-6.2-6-11.1-12.3-11.6
			C1899.6,700.1,1897.8,700.5,1897.8,700.5L1897.8,700.5z M1900.9,704.5c4.5,0,8.2,3.1,9.2,7.3h-18.3
			C1892.7,707.6,1896.5,704.5,1900.9,704.5L1900.9,704.5z M1900.9,704.5"/>
		<path class="st1" d="M1885,665.4c0-1.2-1-2.2-2.2-2.2h-23.5c-2.7,0-5,2.2-5,5v37.8c0,1.2,1,2.2,2.2,2.2c1.2,0,2.2-1,2.2-2.2v-37.8
			c0-0.4,0.3-0.6,0.6-0.6h23.5C1884,667.5,1885,666.6,1885,665.4L1885,665.4z M1885,665.4"/>
		<path class="st2" d="M1909.2,698.3c1.2,0,2.2-1,2.2-2.2V692h4.8c1.2,0,2.2-1,2.2-2.2v-4.3c0-1.5-0.4-2.9-1.2-4.2l-3.3-5.3
			c-0.3-0.5-0.5-1.1-0.5-1.7v-17.3c0-2.6-0.9-5.2-2.7-7.1l-8-9.3c-0.4-0.5-1-0.7-1.6-0.7c-0.6,0-1.2,0.3-1.6,0.8l-7.9,9.3
			c-1.7,2-2.6,4.5-2.6,7.1v17.2c0,0.7-0.2,1.3-0.6,1.8l-3.6,5.1c-0.9,1.3-1.4,2.8-1.4,4.4v4.2c0,1.2,1,2.2,2.2,2.2l3.9,0v4.2
			c0,1.2,1,2.2,2.2,2.2c1.2,0,2.2-1,2.2-2.2V692l0,0c1.2,0,2.2-1,2.2-2.2c0-1.2-1-2.2-2.2-2.2h-6.1v-2c0-0.7,0.2-1.4,0.6-2l3.6-5.1
			c0.9-1.3,1.3-2.7,1.3-4.3v-17.2c0-1.6,0.6-3.1,1.6-4.3l6.3-7.4l6.3,7.3c1,1.2,1.6,2.7,1.6,4.3v17.3c0,1.4,0.4,2.8,1.2,4l3.3,5.3
			c0.4,0.5,0.5,1.2,0.5,1.8v2.1h-5.8c-1.2,0-2.2,1-2.2,2.2c0,0.8,0.4,1.5,1,1.8v4.5C1907,697.3,1908,698.3,1909.2,698.3
			L1909.2,698.3z M1909.2,698.3"/>
		<path class="st1" d="M1898.6,691.3v9.3c0,1.2,0.9,2.2,2,2.3c1.2,0.1,2.3-0.9,2.3-2.2v-9.4c0-1.2-1-2.2-2.2-2.2
			C1899.5,689.2,1898.6,690.1,1898.6,691.3L1898.6,691.3z M1898.6,691.3"/>
	</g>
	<g>
		<path class="st1" d="M1734.9,654.9h-67c-3.7,0-6.7,3-6.7,6.7v72.3c0,3.7,3,6.7,6.7,6.7h67c3.7,0,6.7-3,6.7-6.7v-72.3
			C1741.5,657.9,1738.5,654.9,1734.9,654.9z M1738.4,733.9c0,1.9-1.6,3.5-3.5,3.5h-67c-1.9,0-3.5-1.6-3.5-3.5v-72.3
			c0-1.9,1.6-3.5,3.5-3.5h67c1.9,0,3.5,1.6,3.5,3.5V733.9z"/>
		<path class="st1" d="M1731.5,663.3h-60.3c-0.9,0-1.6,0.7-1.6,1.6v12.7c0,0.9,0.7,1.6,1.6,1.6h60.3c0.9,0,1.6-0.7,1.6-1.6v-12.7
			C1733.1,664,1732.4,663.3,1731.5,663.3z M1729.9,675.9h-57.1v-9.5h57.1V675.9z"/>
		<path class="st1" d="M1686.3,684.9h-15c-0.9,0-1.6,0.7-1.6,1.6v8.2c0,0.9,0.7,1.6,1.6,1.6h15c0.9,0,1.6-0.7,1.6-1.6v-8.2
			C1688,685.6,1687.2,684.9,1686.3,684.9z M1684.7,693.1H1673v-5h11.7V693.1z"/>
		<path class="st1" d="M1731.4,684.9h-15c-0.9,0-1.6,0.7-1.6,1.6v8.2c0,0.9,0.7,1.6,1.6,1.6h15c0.9,0,1.6-0.7,1.6-1.6v-8.2
			C1733.1,685.6,1732.4,684.9,1731.4,684.9z M1729.8,693.1h-11.7v-5h11.7V693.1z"/>
		<path class="st2" d="M1731.4,702.2h-15c-0.9,0-1.6,0.7-1.6,1.6v25.3c0,0.9,0.7,1.6,1.6,1.6h15c0.9,0,1.6-0.7,1.6-1.6v-25.3
			C1733.1,702.9,1732.4,702.2,1731.4,702.2z M1729.8,727.5h-11.7v-22h11.7V727.5z"/>
		<path class="st1" d="M1708.9,684.9h-15c-0.9,0-1.6,0.7-1.6,1.6v8.2c0,0.9,0.7,1.6,1.6,1.6h15c0.9,0,1.6-0.7,1.6-1.6v-8.2
			C1710.6,685.6,1709.8,684.9,1708.9,684.9z M1707.3,693.1h-11.7v-5h11.7V693.1z"/>
		<path class="st1" d="M1686.3,701.9h-15c-0.9,0-1.6,0.7-1.6,1.6v8.2c0,0.9,0.7,1.6,1.6,1.6h15c0.9,0,1.6-0.7,1.6-1.6v-8.2
			C1688,702.6,1687.2,701.9,1686.3,701.9z M1684.7,710.1H1673v-5h11.7V710.1z"/>
		<path class="st1" d="M1708.9,701.9h-15c-0.9,0-1.6,0.7-1.6,1.6v8.2c0,0.9,0.7,1.6,1.6,1.6h15c0.9,0,1.6-0.7,1.6-1.6v-8.2
			C1710.6,702.6,1709.8,701.9,1708.9,701.9z M1707.3,710.1h-11.7v-5h11.7V710.1z"/>
		<path class="st1" d="M1686.3,719.2h-15c-0.9,0-1.6,0.7-1.6,1.6v8.2c0,0.9,0.7,1.6,1.6,1.6h15c0.9,0,1.6-0.7,1.6-1.6v-8.2
			C1688,720,1687.2,719.2,1686.3,719.2z M1684.7,727.5H1673v-5h11.7V727.5z"/>
		<path class="st1" d="M1708.9,719.2h-15c-0.9,0-1.6,0.7-1.6,1.6v8.2c0,0.9,0.7,1.6,1.6,1.6h15c0.9,0,1.6-0.7,1.6-1.6v-8.2
			C1710.6,720,1709.8,719.2,1708.9,719.2z M1707.3,727.5h-11.7v-5h11.7V727.5z"/>
		<path class="st2" d="M1726.4,669.6h-20.2c-0.9,0-1.6,0.7-1.6,1.6s0.7,1.6,1.6,1.6h20.2c0.9,0,1.6-0.7,1.6-1.6
			S1727.2,669.6,1726.4,669.6z"/>
		<path class="st2" d="M1700.7,669.6h-1.5c-0.9,0-1.6,0.7-1.6,1.6s0.7,1.6,1.6,1.6h1.5c0.9,0,1.6-0.7,1.6-1.6
			S1701.6,669.6,1700.7,669.6z"/>
	</g>
	<g>
		<path class="st12" d="M364.3,702.6l-62.1-67.6c-0.6-0.6-1.4-1-2.2-1c-0.8,0-1.6,0.4-2.2,1l-61.9,67.6c-0.8,0.9-1,2.1-0.5,3.2
			c0.5,1.1,1.6,1.8,2.7,1.8h11.2v56c0,1.7,1.3,3,3,3h94.9c1.7,0,3-1.3,3-3v-56h12c1.2,0,2.3-0.7,2.7-1.8
			C365.4,704.8,365.1,703.5,364.3,702.6z M347.2,701.7c-1.7,0-3,1.3-3,3v56h-88.9v-56c0-1.7-1.3-3-3-3h-7.3l55.1-60.1l55.3,60.1
			H347.2z"/>
		<g>
			<path class="st12" d="M315.2,679.7c-3.8-3.8-8.9-5.9-14.3-5.9c-5.4,0-10.5,2.1-14.3,5.9c-7.9,7.9-7.9,20.7,0,28.5
				c1.2,1.2,2.5,2.2,4.2,3.2l0.2,0.1l0,29.4c0,0.7,0.3,1.3,0.7,1.8l7.4,7.4c0.9,0.9,2.6,0.9,3.5,0l7.4-7.4c0.5-0.5,0.7-1.1,0.7-1.8
				s-0.3-1.3-0.7-1.8l-2.7-2.7l2.6-2.6c0.5-0.5,0.7-1.1,0.7-1.8s-0.3-1.3-0.7-1.8l-2.6-2.6l2.6-2.7c0.5-0.5,0.7-1.1,0.7-1.8l0-11.7
				l0.2-0.1c1.5-0.9,3-2,4.2-3.3C323,700.4,323,687.6,315.2,679.7z M311.6,704.8c-1.3,1.3-2.8,2.3-4.5,3.2c-0.9,0.4-1.4,1.3-1.4,2.2
				l0,12.2l-3.7,3.7c-0.5,0.5-0.7,1.1-0.7,1.8c0,0.7,0.3,1.3,0.7,1.8l2.6,2.6l-2.6,2.6c-0.5,0.5-0.7,1.1-0.7,1.8s0.3,1.3,0.7,1.8
				l2.7,2.7l-3.8,3.8l-4.9-4.9l0-29.9c0-0.9-0.5-1.8-1.3-2.2c-2-1.1-3.4-2.1-4.6-3.2c-5.9-5.9-5.9-15.6,0-21.5
				c2.9-2.9,6.7-4.5,10.7-4.5c4.1,0,7.9,1.6,10.7,4.5C317.6,689.2,317.6,698.8,311.6,704.8z"/>
			<path class="st12" d="M307.1,687.5c-1.7-1.7-3.9-2.6-6.2-2.6c-2.3,0-4.5,0.9-6.2,2.6c-3.5,3.5-3.5,8.9,0,12.4
				c1.7,1.7,3.9,2.6,6.2,2.6c2.3,0,4.5-0.9,6.2-2.6c1.7-1.7,2.6-3.9,2.6-6.2C309.7,691.4,308.8,689.2,307.1,687.5z M303.5,696.3
				c-0.7,0.7-1.7,1.1-2.6,1.1c0,0,0,0,0,0c-1,0-1.9-0.4-2.6-1.1c-1.5-1.5-1.5-3.8,0-5.3c1.5-1.5,3.8-1.5,5.3,0
				c0.7,0.7,1.1,1.7,1.1,2.6C304.7,694.6,304.3,695.6,303.5,696.3z"/>
		</g>
	</g>
	<g>
		<rect x="476.8" y="660.4" class="st8" width="17.4" height="9.1"/>
		<path class="st12" d="M491.7,736.9v29.2c0,1.4,1.1,2.5,2.5,2.5s2.5-1.1,2.5-2.5v-82.9h52.5v21.1c0,1.4,1.1,2.5,2.5,2.5
			c1.4,0,2.5-1.1,2.5-2.5v-21.1h5.5c1.4,0,2.5-1.1,2.5-2.5v-10.2c0-1.1-0.7-2.1-1.8-2.4L495,647.6c-0.2-0.1-0.5-0.1-0.7-0.1
			c0,0,0,0,0,0H467c0,0,0,0,0,0c-0.5,0-1,0.2-1.5,0.5l-27.6,20.4c-0.6,0.5-1,1.2-1,2v10.2c0,1.4,1.1,2.5,2.5,2.5h25v82.9
			c0,1.4,1.1,2.5,2.5,2.5c1.4,0,2.5-1.1,2.5-2.5v-6.8L491.7,736.9z M487.2,683.2l-17.7,17.7v-17.7H487.2z M535.5,675.1l-13.9-13.9
			l21.2,6.6L535.5,675.1z M516.2,662.9l15.3,15.3h-30.5L516.2,662.9z M491.7,666.9h-12.4v-4h12.4V666.9z M491.7,685.8V726
			l-20.1-20.1L491.7,685.8z M557.3,678.1h-17.7l7.9-7.9c0.2-0.2,0.4-0.5,0.5-0.8l9.2,2.9V678.1z M496.7,653.4l16.6,5.2l-16.6,16.6
			V653.4z M491.7,657.8h-14.9c-1.4,0-2.5,1.1-2.5,2.5v9.1c0,1.4,1.1,2.5,2.5,2.5h14.9v6.2h-22.2v-25.6h22.2V657.8z M441.9,671.7
			l22.5-16.7v23.1h-22.5V671.7z M469.5,752v-41.1l20.5,20.5L469.5,752z M469.5,752"/>
		<path class="st12" d="M551.8,710.6c-1.4,0-2.5,1.1-2.5,2.5v1.8c0,1.4,1.1,2.5,2.5,2.5c1.4,0,2.5-1.1,2.5-2.5v-1.8
			C554.3,711.7,553.2,710.6,551.8,710.6L551.8,710.6z M551.8,710.6"/>
		<path class="st12" d="M561.1,721.5h-18.6c-1.4,0-2.5,1.1-2.5,2.5v18.6c0,1.4,1.1,2.5,2.5,2.5h18.6c1.4,0,2.5-1.1,2.5-2.5V724
			C563.6,722.6,562.5,721.5,561.1,721.5L561.1,721.5z M558.6,740.1H545v-13.5h13.5V740.1z M558.6,740.1"/>
	</g>
	<g>
		<path class="st12" d="M733.5,725.7c0-1.3-1-2.3-2.3-2.3h-26.9c-1.3,0-2.3,1-2.3,2.3c0,1.3,1,2.3,2.3,2.3h26.9
			C732.4,728,733.5,726.9,733.5,725.7L733.5,725.7z M733.5,725.7"/>
		<path class="st12" d="M683.3,725.4c0-1.3-1-2.3-2.3-2.3h-18.9c-1.3,0-2.3,1-2.3,2.3c0,1.3,1,2.3,2.3,2.3H681
			C682.3,727.7,683.3,726.7,683.3,725.4L683.3,725.4z M683.3,725.4"/>
		<path class="st12" d="M662.1,735.5c-1.3,0-2.3,1-2.3,2.3c0,1.3,1,2.3,2.3,2.3h33.6c1.3,0,2.3-1,2.3-2.3c0-1.3-1-2.3-2.3-2.3H662.1
			z M662.1,735.5"/>
		<path class="st12" d="M695,723.3h-4.5c-1.3,0-2.3,1-2.3,2.3c0,1.3,1,2.3,2.3,2.3h4.5c1.3,0,2.3-1,2.3-2.3
			C697.3,724.4,696.3,723.3,695,723.3L695,723.3z M695,723.3"/>
		<path class="st12" d="M721.4,735.5h-16.5c-1.3,0-2.3,1-2.3,2.3c0,1.3,1,2.3,2.3,2.3h16.5c1.3,0,2.3-1,2.3-2.3
			C723.7,736.5,722.7,735.5,721.4,735.5L721.4,735.5z M721.4,735.5"/>
		<path class="st12" d="M733.5,701.6c0-1.3-1-2.3-2.3-2.3h-13.9c-1.3,0-2.3,1-2.3,2.3c0,1.3,1,2.3,2.3,2.3h13.9
			C732.4,704,733.5,702.9,733.5,701.6L733.5,701.6z M733.5,701.6"/>
		<path class="st12" d="M724.6,656.4v-11.6c0-1.3-1-2.3-2.3-2.3c-1.3,0-2.3,1-2.3,2.3v11.6c0,6.4,5.2,11.6,11.6,11.6h20.8v44
			c0,1.3,1,2.3,2.3,2.3c1.3,0,2.3-1,2.3-2.3v-46.3c0-1.3-1-2.3-2.3-2.3h-23.2C727.7,663.3,724.6,660.2,724.6,656.4L724.6,656.4z
			 M724.6,656.4"/>
		<path class="st12" d="M712.9,662.6h-15.5c-1.3,0-2.3,1-2.3,2.3c0,1.3,1,2.3,2.3,2.3h15.5c1.3,0,2.3-1,2.3-2.3
			C715.2,663.6,714.1,662.6,712.9,662.6L712.9,662.6z M712.9,662.6"/>
		<path class="st12" d="M678.3,701.4c0-1.3-1-2.3-2.3-2.3h-13.9c-1.3,0-2.3,1-2.3,2.3c0,1.3,1,2.3,2.3,2.3H676
			C677.2,703.7,678.3,702.7,678.3,701.4L678.3,701.4z M678.3,701.4"/>
		<path class="st12" d="M697.3,679.2h37.2c1.3,0,2.3-1,2.3-2.3c0-1.3-1-2.3-2.3-2.3h-37.2c-1.3,0-2.3,1-2.3,2.3
			C695,678.1,696.1,679.2,697.3,679.2L697.3,679.2z M697.3,679.2"/>
		<path class="st12" d="M697.4,691.2h27.2c1.3,0,2.3-1,2.3-2.3c0-1.3-1-2.3-2.3-2.3h-27.2c-1.3,0-2.3,1-2.3,2.3
			C695,690.2,696.1,691.2,697.4,691.2L697.4,691.2z M697.4,691.2"/>
		<path class="st12" d="M662.1,711.5c-1.3,0-2.3,1-2.3,2.3c0,1.3,1,2.3,2.3,2.3h4.6c1.3,0,2.3-1,2.3-2.3c0-1.3-1-2.3-2.3-2.3H662.1z
			 M662.1,711.5"/>
		<path class="st12" d="M708,699.3h-22.5c-1.3,0-2.3,1-2.3,2.3c0,1.3,1,2.3,2.3,2.3H708c1.3,0,2.3-1,2.3-2.3
			C710.3,700.4,709.3,699.3,708,699.3L708,699.3z M708,699.3"/>
		<path class="st12" d="M763.5,726.3l-4.6-4.6c-3.6-3.6-9-3.6-12.5,0L716,752c-0.4,0.4-0.7,1-0.7,1.6v13.9c0,1.3,1,2.3,2.3,2.3h13.9
			c0.6,0,1.2-0.2,1.6-0.7l30.3-30.3C767.2,735.1,767.2,730,763.5,726.3L763.5,726.3z M743.4,731.2l3.7,3.7L726.9,755l-3.7-3.7
			L743.4,731.2z M720,765.2v-10.6l10.6,10.6H720z M733.9,761.9l-3.7-3.7l20.1-20.1l3.7,3.7L733.9,761.9z M760.2,735.6l-3,3
			l-10.6-10.6l3-3c1.8-1.8,4.1-1.8,6,0l4.6,4.6C762.1,731.4,762.1,733.7,760.2,735.6L760.2,735.6z M760.2,735.6"/>
		<path class="st12" d="M747.1,654.7l-23.2-23.2c-0.4-0.4-1-0.7-1.6-0.7h-74.1c-6.4,0-11.6,5.2-11.6,11.6v115.8
			c0,6.4,5.2,11.6,11.6,11.6h60.2c1.3,0,2.3-1,2.3-2.3c0-1.3-1-2.3-2.3-2.3h-60.2c-3.8,0-6.9-3.1-6.9-6.9V642.5
			c0-3.8,3.1-6.9,6.9-6.9h73.1l22.5,22.5c0.9,0.9,2.4,0.9,3.3,0C748,657.1,748,655.7,747.1,654.7z"/>
		<path class="st12" d="M688.3,664.9c0-1.3-1-2.3-2.3-2.3h-23.9c-1.3,0-2.3,1-2.3,2.3v23.9c0,1.3,1,2.3,2.3,2.3H686
			c1.3,0,2.3-1,2.3-2.3V664.9z M683.7,686.5h-19.3v-19.3h19.3V686.5z M683.7,686.5"/>
		<path class="st12" d="M721.4,711.5h-45.5c-1.3,0-2.3,1-2.3,2.3c0,1.3,1,2.3,2.3,2.3h45.5c1.3,0,2.3-1,2.3-2.3
			C723.7,712.5,722.7,711.5,721.4,711.5L721.4,711.5z M721.4,711.5"/>
	</g>
	<rect y="600.3" class="st13" width="800.5" height="200.1"/>
</g>
</svg>
